<svg xmlns="http://www.w3.org/2000/svg" width="9.99" height="12" viewBox="0 0 9.99 12"><defs><style>.a{fill:#e17cff;}</style></defs><g transform="translate(-944.781 -581.262)"><ellipse class="a" cx="2.885" cy="2.91" rx="2.885" ry="2.91" transform="translate(946.778 581.262)"/><path class="a" d="M619.844,632.724a1,1,0,0,0-1.41.026,1.03,1.03,0,0,0-.271.72,1.122,1.122,0,0,1-.1.64.439.439,0,0,1-.436.178s1.519.6,2.242-.154A1,1,0,0,0,619.844,632.724Z" transform="translate(329.426 -41.25)"/><g transform="translate(949.186 585.797)"><path class="a" d="M621.361,630.442l-.3.285a.817.817,0,1,0,1.131,1.09l.237-.265A1.124,1.124,0,0,0,621.361,630.442Z" transform="translate(-620.706 -626.455)"/><path class="a" d="M626.55,624.913a.662.662,0,0,0-.9.1l-3.563,3.443a1.479,1.479,0,0,1,1.064,1.074l3.331-3.715A.662.662,0,0,0,626.55,624.913Z" transform="translate(-621.115 -624.778)"/></g><path class="a" d="M616.931,630.793a1.688,1.688,0,0,1,1.226-.522h0a1.863,1.863,0,0,1,.544-1.013l1.982-1.915a4.769,4.769,0,0,0-1.129-.151h-.543a4.8,4.8,0,0,0-4.616,3.5.514.514,0,0,0,.495.653h1.692A1.626,1.626,0,0,1,616.931,630.793Z" transform="translate(330.404 -39.696)"/><path class="a" d="M625.832,629.465,623.56,632c-.006.007-.013.012-.019.018h2.85a.514.514,0,0,0,.495-.653A4.773,4.773,0,0,0,625.832,629.465Z" transform="translate(327.641 -40.368)"/></g></svg>