<svg width="22" height="18" xmlns="http://www.w3.org/2000/svg" xmlns:xlink="http://www.w3.org/1999/xlink" xmlns:svgjs="http://svgjs.com/svgjs" viewBox="492 356 22 18"><svg width="11" height="14" xmlns="http://www.w3.org/2000/svg" xmlns:xlink="http://www.w3.org/1999/xlink" xmlns:svgjs="http://svgjs.com/svgjs" viewBox="0.287 0 10.426 14" fill="#fff" x="498" y="356"><svg xmlns="http://www.w3.org/2000/svg" xmlns:xlink="http://www.w3.org/1999/xlink" width="11" height="14" viewBox="0.616 0 9.713 13.043"><path paint-order="stroke fill markers" fill-rule="evenodd" d="M10.328 4.92c.026 1.324-.446 2.47-1.284 3.47-.495.592-1.02 1.159-1.526 1.74-.702.804-1.3 1.675-1.705 2.67-.061.15-.167.243-.332.243-.159 0-.27-.084-.33-.23-.48-1.184-1.242-2.177-2.089-3.118-.499-.554-1.004-1.108-1.444-1.708C.702 6.744.4 5.342.768 3.84 1.19 2.116 2.222.877 3.913.289c1.628-.565 3.167-.295 4.54.75 1.113.848 1.724 1.998 1.87 3.392.003.025.006.05.006.075v.415zm-2.282-.044a2.568 2.568 0 0 0-2.566-2.57C4.077 2.3 2.918 3.456 2.913 4.865 2.907 6.292 4.06 7.427 5.519 7.432c1.375.005 2.522-1.155 2.527-2.556z"/></svg></svg><svg width="10" height="7" xmlns="http://www.w3.org/2000/svg" xmlns:xlink="http://www.w3.org/1999/xlink" xmlns:svgjs="http://svgjs.com/svgjs" viewBox="0 0.472 10 6.056" fill="#fff" x="504" y="367"><svg xmlns="http://www.w3.org/2000/svg" xmlns:xlink="http://www.w3.org/1999/xlink" width="10" height="7" viewBox="0.365 0.293 9.619 5.825"><path paint-order="stroke fill markers" fill-rule="evenodd" d="M.365 3.073c.3-.591.646-1.14 1.037-1.66.026-.035.082-.058.127-.066 1.634-.29 3.267-.577 4.9-.865.343-.06.686-.118 1.027-.184.085-.017.117.009.15.082.762 1.683 1.527 3.365 2.29 5.047l.016.034c.18.408.016.656-.431.657-1.245 0-2.49.001-3.735-.001a.398.398 0 0 1-.19-.044C3.849 5.09 2.143 4.106.438 3.122c-.022-.013-.041-.028-.073-.049z"/></svg></svg><svg width="15" height="5" xmlns="http://www.w3.org/2000/svg" xmlns:xlink="http://www.w3.org/1999/xlink" xmlns:svgjs="http://svgjs.com/svgjs" viewBox="0 0.437 15 4.126" fill="#fff" x="492" y="369"><svg xmlns="http://www.w3.org/2000/svg" xmlns:xlink="http://www.w3.org/1999/xlink" width="15" height="5" viewBox="0.976 0.29 13.918 3.829"><path paint-order="stroke fill markers" fill-rule="evenodd" d="M14.887 4.113c-.04.002-.08.005-.119.005H1.498c-.034 0-.067.001-.1-.001-.355-.028-.512-.27-.369-.595.307-.693.622-1.383.942-2.07.021-.046.1-.081.157-.092.775-.14 1.552-.275 2.328-.412C5.696.73 6.938.508 8.18.293a.323.323 0 0 1 .198.036c.938.538 1.873 1.08 2.81 1.621l3.593 2.073.113.066-.008.024z"/></svg></svg><svg width="5" height="4" xmlns="http://www.w3.org/2000/svg" xmlns:xlink="http://www.w3.org/1999/xlink" xmlns:svgjs="http://svgjs.com/svgjs" viewBox="0 0.507 5 2.987" fill="#fff" x="494" y="366"><svg xmlns="http://www.w3.org/2000/svg" xmlns:xlink="http://www.w3.org/1999/xlink" width="5" height="4" viewBox="0.503 0.627 4.426 2.644"><path paint-order="stroke fill markers" fill-rule="evenodd" d="M4.93 2.49L.502 3.27 1.704.627 4.929 2.49z"/></svg></svg><svg width="6" height="4" xmlns="http://www.w3.org/2000/svg" xmlns:xlink="http://www.w3.org/1999/xlink" xmlns:svgjs="http://svgjs.com/svgjs" viewBox="0 0.444 6 3.112" fill="#fff" x="496" y="365"><svg xmlns="http://www.w3.org/2000/svg" xmlns:xlink="http://www.w3.org/1999/xlink" width="6" height="4" viewBox="0.882 0.739 4.586 2.379"><path paint-order="stroke fill markers" fill-rule="evenodd" d="M5.468 3.043c-.167.027-.315.055-.462.075-.03.004-.065-.016-.093-.032A8261.14 8261.14 0 0 1 .953.799C.935.79.92.777.881.75.95.744.99.74 1.029.74c.755 0 1.509.001 2.263-.002.088 0 .147.028.205.093.62.693 1.243 1.384 1.865 2.075.033.037.06.078.106.136z"/></svg></svg><svg width="6" height="3" xmlns="http://www.w3.org/2000/svg" xmlns:xlink="http://www.w3.org/1999/xlink" xmlns:svgjs="http://svgjs.com/svgjs" viewBox="0 0.591 6 1.818" fill="#fff" x="506" y="365"><svg xmlns="http://www.w3.org/2000/svg" width="6" height="3" viewBox="0.448 0.74 4.692 1.422"><path paint-order="stroke fill markers" fill-rule="evenodd" d="M.448 2.136c.203-.222.405-.444.61-.664.202-.218.403-.437.612-.65a.267.267 0 0 1 .169-.077C2.614.74 3.389.738 4.164.743c.427.002.732.218.976.592l-4.676.827-.016-.026z"/></svg></svg></svg>