<svg xmlns="http://www.w3.org/2000/svg" width="40" height="39.997" viewBox="0 0 40 39.997"><defs><style>.a{fill:#fff;}.b{fill:#0c0c0c;}</style></defs><g transform="translate(-927.904 -496)"><g transform="translate(927.904 496)"><path class="a" d="M-1701.709,1901.322a20.006,20.006,0,0,1,20.011-20,19.935,19.935,0,0,1,19.989,20.02,19.876,19.876,0,0,1-19.984,19.978A19.942,19.942,0,0,1-1701.709,1901.322Z" transform="translate(1701.709 -1881.319)"/></g><g transform="translate(936.775 507.278)"><g transform="translate(0 0)"><path class="b" d="M1187.067,503.035h-11.808a5.126,5.126,0,0,1-5.12-5.12v-6.373a5.126,5.126,0,0,1,5.12-5.12h11.808a5.126,5.126,0,0,1,5.12,5.12v6.373A5.126,5.126,0,0,1,1187.067,503.035Zm-11.808-15.326a3.837,3.837,0,0,0-3.832,3.832v6.373a3.837,3.837,0,0,0,3.832,3.832h11.808a3.836,3.836,0,0,0,3.832-3.832v-6.373a3.836,3.836,0,0,0-3.832-3.832Z" transform="translate(-1170.139 -486.421)"/></g><g transform="translate(2.755 2.979)"><path class="b" d="M1182.869,497.306l-8.176-5.171a.59.59,0,0,1,.63-1l7.531,4.763,7.185-4.756a.59.59,0,1,1,.651.983Z" transform="translate(-1174.418 -491.047)"/></g></g></g></svg>