<svg xmlns="http://www.w3.org/2000/svg" width="177.108" height="146.094" viewBox="0 0 177.108 146.094"><defs><style>.a{fill:#e17cff;}.b{fill:#7948e5;}.c,.d{fill:#fff;}.c{stroke:rgba(0,0,0,0);}.e{fill:#030124;}</style></defs><g transform="translate(-204.891 -4928.035)"><g transform="translate(129.502 4526.318)"><path class="a" d="M119.276,467.017l4.528-14.338a14.392,14.392,0,0,0-3.331-14.292h0a5.526,5.526,0,0,0-8.576.737l-8.266,12.291a47.563,47.563,0,0,1-8.607,9.655l-4.1,3.494a8.194,8.194,0,0,0-2.873,6.232v41.011A8.192,8.192,0,0,0,96.247,520h36.731a9.148,9.148,0,0,0,8.866-6.891l8.826-34.69a9.145,9.145,0,0,0-8.864-11.4Z" transform="translate(19.54)"/><rect class="a" width="23.889" height="52.982" rx="2.031" transform="translate(75.389 467.016)"/></g><g transform="translate(442.389 5510.811) rotate(180)"><path class="b" d="M109.064,457.094l3.047-9.648a9.685,9.685,0,0,0-2.241-9.617h0a3.718,3.718,0,0,0-5.771.5L98.537,446.6a32.006,32.006,0,0,1-5.792,6.5l-2.756,2.351a5.514,5.514,0,0,0-1.933,4.194v27.6a5.513,5.513,0,0,0,5.513,5.513h24.717a6.156,6.156,0,0,0,5.966-4.637l5.939-23.343a6.154,6.154,0,0,0-5.965-7.672Z" transform="translate(9.006 0)"/><rect class="b" width="16.075" height="35.652" rx="2.031" transform="translate(73.389 457.094)"/></g><g transform="translate(-44.176 4551.647) rotate(-11)"><path class="c" d="M183.887,448.672V448.5c0-3.131,1.7-5.229,4.827-7.01,3.908-2.3,4.913-3.534,4.913-6.005,0-2.326-1.867-3.964-4.453-3.964a4.758,4.758,0,0,0-4.741,3.16,4.644,4.644,0,0,1-4.482,2.816c-2.7,0-4.425-1.666-4.4-4.252a6.93,6.93,0,0,1,.891-3.448c1.925-3.62,6.722-6.091,13.245-6.091,8.706,0,14.423,4.539,14.423,11.521,0,4.223-1.983,7.154-6.206,9.6-3.937,2.27-4.684,3.3-5.257,5.373a4.059,4.059,0,0,1-4.224,3.075A4.313,4.313,0,0,1,183.887,448.672Zm-.747,12.642a5.437,5.437,0,1,1,5.43,5.171A5.259,5.259,0,0,1,183.14,461.313Z"/></g><path class="d" d="M103.335,378.709H68.9c-13.734,0-25.331,10.836-25.563,24.568a25,25,0,0,0,19.43,24.8v6.612a1.375,1.375,0,0,0,2.163,1.126l10.155-7.109h27.685c14.016,0,25.824-11.47,25.558-25.483A25,25,0,0,0,103.335,378.709Z" transform="translate(253.665 4557.355)"/><circle class="e" cx="5" cy="5" r="5" transform="translate(319 4956.064)"/><circle class="e" cx="5" cy="5" r="5" transform="translate(336 4956.064)"/><circle class="e" cx="5" cy="5" r="5" transform="translate(353 4956.064)"/></g></svg>