<svg xmlns="http://www.w3.org/2000/svg" width="27.912" height="22.478" viewBox="0 0 27.912 22.478"><defs><style>.a{fill:#e17cff;}.b{fill:#fff;}</style></defs><g transform="translate(0 12.675)"><g transform="translate(0 0)"><path class="a" d="M120.254,492.856a14.929,14.929,0,0,1,1.377-2.205.286.286,0,0,1,.169-.087q3.254-.578,6.51-1.149c.454-.08.91-.157,1.363-.245.112-.022.155.012.2.11q1.518,3.353,3.043,6.7l.02.045c.238.541.022.872-.573.872H127.4a.528.528,0,0,1-.253-.059q-3.4-1.955-6.8-3.924C120.322,492.9,120.3,492.884,120.254,492.856Z" transform="translate(-105.118 -487.101)"/><path class="a" d="M98.137,501.355c-.053,0-.1.006-.157.006H80.219a.518.518,0,0,1-.489-.79c.407-.921.827-1.837,1.251-2.751a.313.313,0,0,1,.209-.121c1.029-.187,2.061-.366,3.091-.547l4.948-.872a.431.431,0,0,1,.262.047q1.868,1.072,3.732,2.153L98,501.233l.149.087Z" transform="translate(-79.651 -491.562)"/><path class="a" d="M91,489.26,85.117,490.3l1.6-3.512Z" transform="translate(-83.079 -485.609)"/><path class="a" d="M99.688,486.693c-.221.037-.417.073-.61.1a.226.226,0,0,1-.122-.042l-5.262-3.038c-.022-.013-.041-.03-.093-.068.087,0,.144-.009.2-.009H96.8a.331.331,0,0,1,.273.123q1.234,1.381,2.476,2.757C99.591,486.56,99.628,486.615,99.688,486.693Z" transform="translate(-88.401 -483.634)"/><path class="a" d="M127.683,485.483c.271-.294.539-.589.81-.882s.536-.58.814-.863a.354.354,0,0,1,.225-.1q1.543-.011,3.089,0a1.5,1.5,0,0,1,1.3.785l-6.211,1.1Z" transform="translate(-109.777 -483.63)"/></g></g><g transform="translate(10.179)"><ellipse class="b" cx="2.312" cy="2.312" rx="2.312" ry="2.312" transform="translate(1.428)"/><path class="b" d="M113.1,469.75h-4.8a.992.992,0,0,1-.988-.909l-.347-4.126a.992.992,0,0,1,.988-1.075h5.5a.992.992,0,0,1,.988,1.075l-.347,4.126A.992.992,0,0,1,113.1,469.75Z" transform="translate(-106.956 -458.417)"/><path class="b" d="M113.388,477.428h-1.539a1.136,1.136,0,0,1-1.133-1.053l-.695-9.49h5.194l-.695,9.49A1.136,1.136,0,0,1,113.388,477.428Z" transform="translate(-108.879 -460.451)"/></g></svg>