<svg xmlns="http://www.w3.org/2000/svg" xmlns:xlink="http://www.w3.org/1999/xlink" width="21.681" height="25" viewBox="0 0 21.681 25"><defs><style>.a{fill:#e17cff;}.b{filter:url(#a);}</style><filter id="a" x="0" y="0" width="21.681" height="25" filterUnits="userSpaceOnUse"><feOffset input="SourceAlpha"/><feGaussianBlur stdDeviation="2" result="b"/><feFlood flood-opacity="0.161"/><feComposite operator="in" in2="b"/><feComposite in="SourceGraphic"/></filter></defs><g class="b" transform="matrix(1, 0, 0, 1, 0, 0)"><path class="a" d="M2386.118,709.923a5.107,5.107,0,0,1-1.28,3.458c-.493.59-1.016,1.155-1.521,1.734a9.525,9.525,0,0,0-1.7,2.66.341.341,0,0,1-.331.243.337.337,0,0,1-.328-.229,10.742,10.742,0,0,0-2.083-3.107c-.5-.552-1-1.1-1.44-1.7a4.8,4.8,0,0,1-.846-4.135,4.7,4.7,0,0,1,3.133-3.538,4.617,4.617,0,0,1,4.524.748,4.7,4.7,0,0,1,1.865,3.38.643.643,0,0,1,.005.075C2386.118,709.647,2386.118,709.785,2386.118,709.923Zm-2.274-.044a2.558,2.558,0,1,0-2.519,2.547A2.56,2.56,0,0,0,2383.844,709.879Z" transform="translate(-2370.44 -699.02)"/></g></svg>