<svg xmlns="http://www.w3.org/2000/svg" width="507.155" height="349.386" viewBox="0 0 507.155 349.386"><defs><style>.a{isolation:isolate;}.b{fill:#fff;}.c{fill:#c33289;}.d{fill:#55ad72;}</style></defs><g transform="translate(1267.583 576.962)"><g class="a" transform="translate(-1267.583 -553.495)"><g transform="translate(266.982 11.569)"><path class="b" d="M-907.511-539.373l-.019.633-34.13,12.847.011-.636Z" transform="translate(941.66 539.373)"/></g><g transform="translate(250.856 12.609)"><path class="b" d="M-945.209-526.3l-.011.636-16.126-11.806.008-.633Z" transform="translate(961.346 538.103)"/></g><g transform="translate(250.863)"><path class="b" d="M-927.348-553.5l16.278,11.569-34.137,12.843-16.13-11.8Z" transform="translate(961.337 553.495)"/></g><g transform="translate(308.84 26.079)"><path class="b" d="M-877.853-521.658l-.023.637-12.684,4.858.021-.638Z" transform="translate(890.561 521.658)"/></g><g transform="translate(317.768 30.631)"><path class="b" d="M-867.8-507.644l-.025.64-11.833-8.461.023-.638Z" transform="translate(879.661 516.102)"/></g><g transform="translate(205.834 29.311)"><path class="b" d="M-1000.383-505.6l0,.641-15.92-12.12,0-.638Z" transform="translate(1016.307 517.713)"/></g><g transform="translate(205.834 13.891)"><path class="b" d="M-974.739-536.538l16.114,11.827L-1000.383-509l-15.924-12.117Z" transform="translate(1016.307 536.538)"/></g><g transform="translate(221.757 25.718)"><path class="b" d="M-955.109-522.1l-.01.637-41.75,15.714,0-.641Z" transform="translate(996.87 522.1)"/></g><g transform="translate(166.412 43.556)"><path class="c" d="M-1057.316-494.716l.009.643-7.116-5.609-.011-.642Z" transform="translate(1064.433 500.324)"/></g><g transform="translate(173.529 35.816)"><path class="c" d="M-1019.994-509.772v.639l-35.742,13.351-.009-.643Z" transform="translate(1055.744 509.772)"/></g><g transform="translate(166.412 30.327)"><path class="c" d="M-1028.761-516.473l7.2,5.489-35.75,13.347-7.117-5.608Z" transform="translate(1064.433 516.473)"/></g><g transform="translate(183.381 43.422)"><path class="c" d="M-1007.855-500.488v.641l-35.854,13.506-.007-.645Z" transform="translate(1043.717 500.488)"/></g><g transform="translate(176.184 51.253)"><path class="c" d="M-1045.306-485.256l.007.645-7.2-5.673-.009-.644Z" transform="translate(1052.503 490.927)"/></g><g transform="translate(176.184 37.866)"><path class="c" d="M-1016.719-507.27l7.275,5.556-35.862,13.5-7.2-5.671Z" transform="translate(1052.503 507.27)"/></g><g transform="translate(133.447 50.468)"><path class="c" d="M-1068.1-491.885l.01.643-36.57,13.656-.018-.647Z" transform="translate(1104.675 491.885)"/></g><g transform="translate(126.426 58.386)"><path class="c" d="M-1106.225-476.485l.018.647-7.02-5.735-.02-.646Z" transform="translate(1113.246 482.219)"/></g><g transform="translate(126.426 44.855)"><path class="c" d="M-1076.756-498.738l7.11,5.614-36.578,13.652-7.021-5.734Z" transform="translate(1113.246 498.738)"/></g><g transform="translate(252.309 38.668)"><path class="b" d="M-892.261-506.291l-.023.64-67.288,26.016.008-.647Z" transform="translate(959.572 506.291)"/></g><g transform="translate(225.056 13.965)"><path class="b" d="M-913.4-536.447l17.046,12.114-12.687,4.857,10.759,7.732-67.3,26.009-27.261-20.739Z" transform="translate(992.841 536.447)"/></g><g transform="translate(225.054 43.938)"><path class="b" d="M-965.581-479.118l-.008.647-27.255-20.744,0-.642Z" transform="translate(992.844 499.856)"/></g><g transform="translate(185.813 45.295)"><path class="c" d="M-1004.865-498.2l7.363,5.617-35.966,13.659-7.28-5.737Z" transform="translate(1040.749 498.2)"/></g><g transform="translate(193.093 50.912)"><path class="c" d="M-995.895-491.344l0,.643-35.958,13.663,0-.647Z" transform="translate(1031.861 491.344)"/></g><g transform="translate(185.813 58.834)"><path class="c" d="M-1033.468-475.935l0,.647-7.279-5.738-.006-.646Z" transform="translate(1040.749 481.672)"/></g><g transform="translate(136.069 66.258)"><path class="c" d="M-1094.365-466.8l.016.649-7.109-5.806-.018-.648Z" transform="translate(1101.475 472.61)"/></g><g transform="translate(136.069 52.565)"><path class="c" d="M-1064.871-489.326l7.2,5.683-36.693,13.816-7.11-5.8Z" transform="translate(1101.475 489.326)"/></g><g transform="translate(143.179 58.247)"><path class="c" d="M-1056.1-482.389l.008.645-36.684,13.819-.016-.649Z" transform="translate(1092.795 482.389)"/></g><g transform="translate(145.575 74.015)"><path class="c" d="M-1082.676-457.268l.014.651-7.192-5.874-.016-.65Z" transform="translate(1089.87 463.141)"/></g><g transform="translate(152.768 65.91)"><path class="c" d="M-1044.284-473.035l.006.647-36.8,13.981-.014-.651Z" transform="translate(1081.089 473.035)"/></g><g transform="translate(145.575 60.161)"><path class="c" d="M-1053.154-480.052l7.282,5.749-36.8,13.978-7.193-5.873Z" transform="translate(1089.87 480.052)"/></g><g transform="translate(213.126 66.362)"><path class="c" d="M-971.228-472.483l-.008.648-36.17,13.989v-.651Z" transform="translate(1007.406 472.483)"/></g><g transform="translate(195.422 66.404)"><path class="c" d="M-1011.314-458.488v.651l-17.7-13.947,0-.648Z" transform="translate(1029.018 472.431)"/></g><g transform="translate(195.422 52.707)"><path class="c" d="M-993.027-489.152l17.891,13.655-36.178,13.986-17.7-13.943Z" transform="translate(1029.018 489.152)"/></g><g transform="translate(273.233 28.098)"><path class="b" d="M-882.871-519.194l42.18,29.981-63.487,25.259-29.852-22.382,56.394-21.867-11.836-8.458Z" transform="translate(934.029 519.194)"/></g><g transform="translate(303.064 58.079)"><path class="b" d="M-834.1-482.594l-.034.645-63.473,25.265.02-.652Z" transform="translate(897.611 482.594)"/></g><g transform="translate(273.22 60.956)"><path class="b" d="M-904.18-456.7l-.02.652-29.845-22.387.013-.646Z" transform="translate(934.045 479.082)"/></g><g transform="translate(255.725 67.278)"><path class="b" d="M-925.28-448.451l-.016.654L-955.4-470.716l.009-.648Z" transform="translate(955.402 471.364)"/></g><g transform="translate(285.831 84.877)"><path class="b" d="M-905.274-449.88l-.019.652-13.356,5.315.016-.654Z" transform="translate(918.649 449.88)"/></g><g transform="translate(255.734 62.14)"><path class="b" d="M-942.144-477.636l30.225,22.736-13.359,5.314L-955.391-472.5Z" transform="translate(955.391 477.636)"/></g><g transform="translate(172.548 81.715)"><path class="c" d="M-1019.91-453.74v.652l-37.023,14.319-.01-.655Z" transform="translate(1056.941 453.74)"/></g><g transform="translate(155.068 67.747)"><path class="c" d="M-1041.449-470.792l17.68,13.969-37.031,14.315-17.48-14.267Z" transform="translate(1078.281 470.792)"/></g><g transform="translate(155.068 81.763)"><path class="c" d="M-1060.8-439.414l.01.655-17.476-14.271-.014-.652Z" transform="translate(1078.281 453.681)"/></g><g transform="translate(49.031 87.478)"><path class="c" d="M-1189.47-430.714l.034.657-18.254-15.994-.038-.653Z" transform="translate(1207.728 446.705)"/></g><g transform="translate(67.289 91.999)"><path class="c" d="M-1155.04-441.185l.027.654-30.392,11.472-.034-.657Z" transform="translate(1185.439 441.185)"/></g><g transform="translate(49.031 76.276)"><path class="c" d="M-1177.527-460.38l18.457,15.724-30.4,11.469-18.257-15.99Z" transform="translate(1207.728 460.38)"/></g><g transform="translate(289.171 92.736)"><path class="b" d="M-897.025-426.946l-.021.658-17.526-13.342.017-.654Z" transform="translate(914.573 440.285)"/></g><g transform="translate(289.188 60.499)"><path class="b" d="M-833.76-479.64l17.885,12.71-81.146,32.867-17.53-13.339Z" transform="translate(914.552 479.64)"/></g><g transform="translate(306.697 73.209)"><path class="b" d="M-812.01-464.124l-.039.649L-893.177-430.6l.021-.658Z" transform="translate(893.177 464.124)"/></g><g transform="translate(84.19 59.66)"><path class="d" d="M-1126.011-480.665l46.08,37.718-39.392,15.23-45.484-38.558Z" transform="translate(1164.807 480.665)"/></g><g transform="translate(129.674 97.378)"><path class="d" d="M-1069.889-434.62l.01.656-39.382,15.234-.02-.659Z" transform="translate(1109.281 434.62)"/></g><g transform="translate(84.19 74.049)"><path class="d" d="M-1119.323-424.54l.02.659-45.474-38.568-.03-.65Z" transform="translate(1164.807 463.098)"/></g><g transform="translate(309.901 108.516)"><path class="b" d="M-874.565-409.856l-.026.661-14.675-11.169.022-.658Z" transform="translate(889.266 421.023)"/></g><g transform="translate(309.923 75.533)"><path class="b" d="M-808.029-461.287l14.958,10.629-81.489,33.52L-889.238-428.3Z" transform="translate(889.238 461.287)"/></g><g transform="translate(324.576 86.162)"><path class="b" d="M-789.836-448.311l-.044.652-81.471,33.529.026-.661Z" transform="translate(871.351 448.311)"/></g><g transform="translate(11.732 105.399)"><path class="c" d="M-1202.824-424.827l.036.658-50.426,19.033-.048-.663Z" transform="translate(1253.262 424.827)"/></g><g transform="translate(0 89.366)"><path class="c" d="M-1223.632-444.4l18.219,16.033-50.438,19.029-11.732-18.76Z" transform="translate(1267.584 444.4)"/></g><g transform="translate(0 105.667)"><path class="c" d="M-1255.852-405.739l.048.663-11.729-18.765-.05-.658Z" transform="translate(1267.584 424.5)"/></g><g transform="translate(69.508 105.411)"><path class="c" d="M-1159.04-404.06l.029.663-23.684-20.758-.034-.658Z" transform="translate(1182.73 424.813)"/></g><g transform="translate(93.198 114.308)"><path class="c" d="M-1123.129-413.952l.021.66-30.674,11.859-.029-.663Z" transform="translate(1153.811 413.952)"/></g><g transform="translate(69.508 93.909)"><path class="c" d="M-1152.306-438.854l23.948,20.4L-1159.04-406.6l-23.689-20.753Z" transform="translate(1182.73 438.854)"/></g><g transform="translate(163.209 68.622)"><path class="b" d="M-979.29-469.724l30.09,22.962-89.83,35.739-29.312-24.187Z" transform="translate(1068.342 469.724)"/></g><g transform="translate(163.209 103.136)"><path class="b" d="M-1039.031-403.4l.005.663-29.3-24.193-.012-.657Z" transform="translate(1068.342 427.589)"/></g><g transform="translate(192.521 91.584)"><path class="b" d="M-942.729-441.692l-.016.654-89.81,35.748-.005-.663Z" transform="translate(1032.56 441.692)"/></g><g transform="translate(160.754 128.648)"><path class="b" d="M-1045.4-396.446l.007.663-25.93,10.315-.013-.666Z" transform="translate(1071.34 396.446)"/></g><g transform="translate(132.526 115.029)"><path class="b" d="M-1077.572-389.14l.013.666-28.222-23.937-.019-.66Z" transform="translate(1105.8 413.072)"/></g><g transform="translate(132.526 105.066)"><path class="b" d="M-1080.1-425.234l28.461,23.582-25.937,10.312-28.228-23.931Z" transform="translate(1105.8 425.234)"/></g><g transform="translate(212.825 94.13)"><path class="b" d="M-934.91-438.585l35.382,27-73.567,30.26-34.678-28.191Z" transform="translate(1007.773 438.585)"/></g><g transform="translate(247.495 121.132)"><path class="b" d="M-891.874-405.621l-.025.661-73.55,30.267.008-.669Z" transform="translate(965.448 405.621)"/></g><g transform="translate(212.825 123.201)"><path class="b" d="M-973.095-374.9l-.008.669-34.67-28.2v-.662Z" transform="translate(1007.773 403.095)"/></g><g transform="translate(26.441 128.159)"><path class="c" d="M-1173.714-397.042l.03.663-61.575,23.806-.045-.669Z" transform="translate(1235.305 397.042)"/></g><g transform="translate(11.423 107.347)"><path class="c" d="M-1200.676-422.449l23.646,20.812-61.591,23.8-15.018-24.585Z" transform="translate(1253.639 422.449)"/></g><g transform="translate(11.423 127.375)"><path class="c" d="M-1238.621-373.414l.045.669-15.016-24.591-.048-.663Z" transform="translate(1253.639 397.999)"/></g><g transform="translate(334.933 110.401)"><path class="b" d="M-826.019-418.721l47.172,34.831-33.042,14.233-46.817-35.532Z" transform="translate(858.707 418.721)"/></g><g transform="translate(381.71 145.232)"><path class="b" d="M-768.52-376.2l-.048.667L-801.6-361.3l.04-.67Z" transform="translate(801.603 376.201)"/></g><g transform="translate(334.905 123.933)"><path class="b" d="M-811.9-366.67l-.04.67-46.805-35.54.028-.662Z" transform="translate(858.741 402.202)"/></g><g transform="translate(79.229 135.836)"><path class="b" d="M-1100.944-387.671l.016.665-69.9,27.651-.033-.672Z" transform="translate(1170.864 387.671)"/></g><g transform="translate(57.771 117.108)"><path class="b" d="M-1127.664-410.533l21.983,18.728-69.92,27.644-21.457-19.476Z" transform="translate(1197.058 410.533)"/></g><g transform="translate(57.771 144.004)"><path class="b" d="M-1175.6-358.223l.033.672-21.453-19.481-.037-.667Z" transform="translate(1197.058 377.699)"/></g><g transform="translate(164.78 142.371)"><path class="b" d="M-1032.238-350.709l0,.673-34.18-28.991-.012-.667Z" transform="translate(1066.426 379.693)"/></g><g transform="translate(198.967 153.339)"><path class="b" d="M-980.884-366.3l-.007.669-43.8,18.021,0-.673Z" transform="translate(1024.69 366.304)"/></g><g transform="translate(164.78 125.073)"><path class="b" d="M-1023.068-400.81l34.636,28.265-43.806,18.016-34.188-28.984Z" transform="translate(1066.426 400.81)"/></g><g transform="translate(372.319 91.766)"><path class="c" d="M-772.735-441.471l94.5,67.208-41.122,18.407-93.714-68.923Z" transform="translate(813.068 441.471)"/></g><g transform="translate(372.282 108.457)"><path class="c" d="M-719.362-352.171l-.061.674-93.689-68.939.037-.658Z" transform="translate(813.112 421.094)"/></g><g transform="translate(465.971 158.973)"><path class="c" d="M-657.556-359.426l-.071.67-41.113,18.411.061-.674Z" transform="translate(698.739 359.426)"/></g><g transform="translate(43.089 164.755)"><path class="c" d="M-1184.625-352.367l.034.672L-1214.94-339.7l-.042-.675Z" transform="translate(1214.982 352.367)"/></g><g transform="translate(29.614 145.931)"><path class="c" d="M-1208.254-375.347l20.653,18.824-30.356,11.991-13.475-21.83Z" transform="translate(1231.431 375.347)"/></g><g transform="translate(29.614 154.916)"><path class="c" d="M-1217.956-342.548l.042.675-13.472-21.835-.045-.67Z" transform="translate(1231.431 364.378)"/></g><g transform="translate(120.776 150.313)"><path class="b" d="M-1078.809-333.795l.013.677-41.325-36.212-.023-.669Z" transform="translate(1120.144 369.998)"/></g><g transform="translate(120.776 138.044)"><path class="b" d="M-1089.181-384.975l41.749,35.567-31.376,12.9-41.335-36.2Z" transform="translate(1120.144 384.975)"/></g><g transform="translate(162.111 173.611)"><path class="b" d="M-1038.307-341.556l.005.674-31.369,12.908-.013-.677Z" transform="translate(1069.683 341.556)"/></g><g transform="translate(426.849 178.805)"><path class="b" d="M-713.084-335.215l-.06.675L-746.5-319.611l.052-.678Z" transform="translate(746.498 335.215)"/></g><g transform="translate(386.099 162.799)"><path class="b" d="M-755.442-323.823l-.052.678-40.75-30.939.041-.671Z" transform="translate(796.245 354.755)"/></g><g transform="translate(386.141 148.499)"><path class="b" d="M-763.109-372.212l41.038,30.306-33.362,14.926-40.761-30.932Z" transform="translate(796.194 372.212)"/></g><g transform="translate(43.093 166.522)"><path class="c" d="M-1182.685-350.21l21.859,19.926-39.639,16.007-14.511-23.154Z" transform="translate(1214.977 350.21)"/></g><g transform="translate(43.093 179.301)"><path class="c" d="M-1200.465-311.456l.039.68-14.508-23.159-.042-.675Z" transform="translate(1214.977 334.61)"/></g><g transform="translate(57.605 186.448)"><path class="c" d="M-1157.623-325.885l.029.677-39.629,16.011-.039-.68Z" transform="translate(1197.262 325.885)"/></g><g transform="translate(81.764 165.774)"><path class="b" d="M-1126.975-314.11l.023.68-40.785-37.021-.032-.672Z" transform="translate(1167.769 351.123)"/></g><g transform="translate(122.558 188.05)"><path class="b" d="M-1082.142-323.93l.014.677-35.818,14.741-.023-.68Z" transform="translate(1117.969 323.93)"/></g><g transform="translate(81.764 151.773)"><path class="b" d="M-1132.438-368.215l41.29,36.276-35.827,14.737-40.794-37.013Z" transform="translate(1167.769 368.215)"/></g><g transform="translate(276.141 204.922)"><path class="b" d="M-898.843-303.333l-.023.681L-930.479-288.9l.015-.684Z" transform="translate(930.479 303.333)"/></g><g transform="translate(254.517 218.668)"><path class="b" d="M-935.238-286.552l-.015.684-21.624,1.024.01-.684Z" transform="translate(956.877 286.552)"/></g><g transform="translate(205.028 158.658)"><path class="b" d="M-971.3-359.81l56.753,46.264L-946.163-299.8l-21.629,1.024-49.5-42Z" transform="translate(1017.291 359.81)"/></g><g transform="translate(205.028 177.697)"><path class="b" d="M-967.793-294.573l-.01.684-49.486-42,0-.675Z" transform="translate(1017.291 336.569)"/></g><g transform="translate(362.498 195.535)"><path class="b" d="M-764.695-314.792l-.051.678-60.31,26.989.037-.684Z" transform="translate(825.056 314.792)"/></g><g transform="translate(271.942 149.996)"><path class="b" d="M-845.011-297.863l-.037.684L-935.6-369.717l.014-.668Z" transform="translate(935.604 370.385)"/></g><g transform="translate(271.956 125.567)"><path class="b" d="M-876.568-400.207l91.884,69.968-60.324,26.983-90.579-72.522Z" transform="translate(935.588 400.207)"/></g><g transform="translate(60.629 189.547)"><path class="c" d="M-1153.548-322.1l16.819,15.329-47.758,19.648-9.082-18.767Z" transform="translate(1193.569 322.102)"/></g><g transform="translate(60.629 205.757)"><path class="c" d="M-1184.487-283.546l.037.685-9.08-18.771-.039-.681Z" transform="translate(1193.569 302.313)"/></g><g transform="translate(69.711 204.876)"><path class="c" d="M-1134.724-303.389l.024.681-47.745,19.652-.037-.685Z" transform="translate(1182.482 303.389)"/></g><g transform="translate(255.18 151.939)"><path class="b" d="M-943.982-368.013l90.466,72.731-12.375,5.53-90.177-73.258Z" transform="translate(956.068 368.013)"/></g><g transform="translate(255.17 156.942)"><path class="b" d="M-865.893-288.648l-.033.686-90.153-73.274.01-.67Z" transform="translate(956.08 361.906)"/></g><g transform="translate(345.323 224.669)"><path class="b" d="M-833.616-279.225l-.036.685-12.372,5.531.033-.686Z" transform="translate(846.023 279.225)"/></g><g transform="translate(168.072 179.97)"><path class="b" d="M-1030.94-333.793l45.169,38.512-31.885,13.73-44.75-39.219Z" transform="translate(1062.406 333.793)"/></g><g transform="translate(168.072 192.993)"><path class="b" d="M-1017.656-278.675v.686l-44.739-39.228-.012-.678Z" transform="translate(1062.406 317.895)"/></g><g transform="translate(212.822 218.482)"><path class="b" d="M-975.892-286.778l-.008.684-31.877,13.733v-.686Z" transform="translate(1007.777 286.778)"/></g><g transform="translate(128.408 195.183)"><path class="b" d="M-1076.458-315.221l26.341,23.2-34.656,14.682L-1110.827-301Z" transform="translate(1110.827 315.221)"/></g><g transform="translate(128.408 209.405)"><path class="b" d="M-1084.774-274.2l.016.687-26.047-23.669-.022-.682Z" transform="translate(1110.827 297.86)"/></g><g transform="translate(154.461 218.387)"><path class="b" d="M-1044.365-286.895l.006.684-34.647,14.685-.016-.687Z" transform="translate(1079.022 286.895)"/></g><g transform="translate(258.349 208.102)"><path class="b" d="M-898.872-299.451-883.1-286.6l-46.97,20.762L-952.2-284.616l21.986-1.163Z" transform="translate(952.199 299.451)"/></g><g transform="translate(280.46 220.957)"><path class="b" d="M-878.219-283.758l-.028.684-46.958,20.767.017-.688Z" transform="translate(925.206 283.758)"/></g><g transform="translate(258.338 222.937)"><path class="b" d="M-930.073-262.558l-.017.688-22.122-18.787.011-.684Z" transform="translate(952.212 281.341)"/></g><g transform="translate(157.847 236.138)"><path class="b" d="M-1057.867-249.765l.01.69-17.017-15.464-.015-.687Z" transform="translate(1074.889 265.225)"/></g><g transform="translate(157.847 221.392)"><path class="b" d="M-1040.2-283.226l17.21,15.159-34.876,15.047-17.022-15.461Z" transform="translate(1074.889 283.226)"/></g><g transform="translate(174.868 236.552)"><path class="b" d="M-1019.233-264.72v.687l-34.867,15.05-.01-.69Z" transform="translate(1054.11 264.72)"/></g><g transform="translate(284.187 224.015)"><path class="b" d="M-873.652-280.024l9.917,8.087-47.122,21.079-9.8-8.316Z" transform="translate(920.656 280.024)"/></g><g transform="translate(284.17 244.864)"><path class="b" d="M-910.861-246.256l-.02.691-9.8-8.318.018-.689Z" transform="translate(920.678 254.572)"/></g><g transform="translate(293.966 232.102)"><path class="b" d="M-861.577-270.152l-.032.686-47.11,21.083.02-.691Z" transform="translate(908.719 270.152)"/></g><g transform="translate(126.344 244.641)"><path class="b" d="M-1080.077-254.845l.014.689-33.261,14.23-.023-.692Z" transform="translate(1113.346 254.845)"/></g><g transform="translate(90.434 211.519)"><path class="b" d="M-1124.313-295.279-1088-262.157l-33.27,14.227-35.91-33.745Z" transform="translate(1157.184 295.279)"/></g><g transform="translate(90.434 225.123)"><path class="b" d="M-1121.274-244.927l.023.692-35.9-33.752-.031-.685Z" transform="translate(1157.184 278.672)"/></g><g transform="translate(217.029 222.1)"><path class="b" d="M-970.723-282.362l39.4,33.6-32.269,14.438-39.055-34.233Z" transform="translate(1002.641 282.362)"/></g><g transform="translate(256.073 255.696)"><path class="b" d="M-922.7-241.349l-.019.691-32.261,14.441.011-.694Z" transform="translate(954.977 241.349)"/></g><g transform="translate(217.028 235.902)"><path class="b" d="M-963.586-231.281l-.011.694-39.044-34.239v-.687Z" transform="translate(1002.642 265.514)"/></g><g transform="translate(129.981 262.287)"><path class="b" d="M-1092.882-218.239l.018.7-16.02-15.067-.022-.693Z" transform="translate(1108.906 233.303)"/></g><g transform="translate(215.345 272.567)"><path class="b" d="M-969.4-220.754l-.009.694-35.288,15.788v-.7Z" transform="translate(1004.697 220.754)"/></g><g transform="translate(178.376 254.782)"><path class="b" d="M-1012.858-208.9v.7l-36.959-33.576-.009-.691Z" transform="translate(1049.827 242.465)"/></g><g transform="translate(178.376 239.669)"><path class="b" d="M-1014.919-260.915l37.358,32.9-35.3,15.785-36.969-33.57Z" transform="translate(1049.827 260.915)"/></g><g transform="translate(109.311 276.719)"><path class="b" d="M-1106.358-215.685l.02.7-27.775,12.06-.028-.7Z" transform="translate(1134.141 215.685)"/></g><g transform="translate(74.096 231.884)"><path class="b" d="M-1141.915-213.525l.028.7-35.206-56.9-.036-.687Z" transform="translate(1177.129 270.418)"/></g><g transform="translate(74.096 227.415)"><path class="b" d="M-1166.331-275.874l52.2,49.3-27.782,12.058-35.214-56.893Z" transform="translate(1177.129 275.874)"/></g><g transform="translate(132.937 290.7)"><path class="b" d="M-1028.135-198.617v.7l-77.143,34.522-.022-.7Z" transform="translate(1105.298 198.617)"/></g><g transform="translate(112.216 247.996)"><path class="b" d="M-1079.519-250.749l46.81,42.7-77.164,34.515-20.72-33.154,33.789-14.71-16.024-15.064Z" transform="translate(1130.593 250.749)"/></g><g transform="translate(112.216 292.061)"><path class="b" d="M-1109.873-163.8l.022.7-20.716-33.16-.027-.7Z" transform="translate(1130.593 196.956)"/></g></g><g transform="translate(91.482 77.545)"><g class="a" transform="translate(-1241.185 -605.249)"><g transform="translate(0 18.717)"><path class="b" d="M-1240.857-521.8l-.312-.206-.016-2.94.311.206Z" transform="translate(1241.185 524.951)"/></g><g transform="translate(0 12.859)"><path class="b" d="M-1233.1-536.117l.311.207a1.537,1.537,0,0,1,.633,1.417c.009,1.538-1.133,2.958-3.4,3.789a11.079,11.079,0,0,1-5.315.652l-.312-.206a11.082,11.082,0,0,0,5.316-.652c2.265-.831,3.407-2.251,3.4-3.789A1.537,1.537,0,0,0-1233.1-536.117Z" transform="translate(1241.185 536.117)"/></g><g transform="translate(4.066 8.442)"><path class="b" d="M-1233.123-544.328l-.312-.207a8.089,8.089,0,0,0,3.245.6,7.605,7.605,0,0,1,3.481.9l.312.206a7.606,7.606,0,0,0-3.481-.9A8.1,8.1,0,0,1-1233.123-544.328Z" transform="translate(1233.435 544.535)"/></g><g transform="translate(6.219 0)"><path class="b" d="M-1229.021-559.594l-.311-.206a10.1,10.1,0,0,1,4.938-.761l.311.206A10.1,10.1,0,0,0-1229.021-559.594Z" transform="translate(1229.332 560.625)"/></g><g transform="translate(0.091 0.825)"><path class="b" d="M-1239.291-548.27l-.312-.206a3.421,3.421,0,0,1-1.409-3.116c-.017-3.1,2.442-6.108,6.128-7.46l.311.206c-3.686,1.352-6.144,4.359-6.127,7.46A3.419,3.419,0,0,0-1239.291-548.27Z" transform="translate(1241.011 559.053)"/></g><g transform="translate(0.312 0.206)"><path class="b" d="M-1234.372-559.407a10.1,10.1,0,0,1,4.938-.761l.016,2.858a8.608,8.608,0,0,0-4.392.477c-2.117.776-3.332,2.088-3.323,3.65.01,1.752,1.232,1.761,3.853,1.99,3.272.283,4.8,1.049,4.816,4.014.018,3.261-2.115,6.07-6.572,7.7a12.453,12.453,0,0,1-5.539.9l-.016-2.94a11.082,11.082,0,0,0,5.315-.652c2.265-.831,3.407-2.251,3.4-3.789-.009-1.723-1.232-1.843-3.955-2.006-3.223-.223-4.652-1.317-4.667-3.986C-1240.517-555.048-1238.058-558.055-1234.372-559.407Z" transform="translate(1240.591 560.232)"/></g></g><g class="a" transform="translate(-1226.771 -612.483)"><g transform="translate(4.416 12.722)"><path class="b" d="M-1204.984-543.838l-.311-.206a3.465,3.465,0,0,0,3.124.028,6.258,6.258,0,0,0,4.234-6.148l.312.206a6.258,6.258,0,0,1-4.235,6.148A3.465,3.465,0,0,1-1204.984-543.838Z" transform="translate(1205.296 550.164)"/></g><g transform="translate(11.712 1.16)"><path class="b" d="M-1191.016-560.433l-.311-.206-.063-11.563.312.206Z" transform="translate(1191.391 572.202)"/></g><g transform="translate(11.712)"><path class="b" d="M-1191.08-573.046l-.312-.206,3.161-1.16.311.206Z" transform="translate(1191.391 574.412)"/></g><g transform="translate(0.063 16.965)"><path class="b" d="M-1211.288-536.85l-.312-.206c-1.332-.882-1.98-2.642-1.993-5.022l.312.207C-1213.268-539.492-1212.62-537.732-1211.288-536.85Z" transform="translate(1213.593 542.078)"/></g><g transform="translate(0.312 0.206)"><path class="b" d="M-1198.246-574.019l.063,11.509a10.6,10.6,0,0,1-7.379,10.461c-5.084,1.865-7.469-.42-7.494-5l-.063-11.509,3.165-1.161.063,11.562c.017,3.047,1.77,3.945,4.312,3.013a6.258,6.258,0,0,0,4.234-6.148l-.064-11.562Z" transform="translate(1213.119 574.019)"/></g><g transform="translate(0 5.456)"><path class="b" d="M-1213.338-552.3l-.311-.206-.063-11.509.312.206Z" transform="translate(1213.713 564.013)"/></g><g transform="translate(0 4.295)"><path class="b" d="M-1213.4-564.859l-.312-.206,3.166-1.161.311.206Z" transform="translate(1213.713 566.226)"/></g></g><g class="a" transform="translate(-1211.046 -616.441)"><g transform="translate(12.159 13.716)"><path class="b" d="M-1158.64-551.848l-.311-.206-1.616-3.758.311.206Z" transform="translate(1160.568 555.812)"/></g><g transform="translate(5.642 11.208)"><path class="b" d="M-1172.678-558.322l-.311-.206,5.628-2.064.311.206Z" transform="translate(1172.989 560.593)"/></g><g transform="translate(8.41 4.231)"><path class="b" d="M-1164.542-566.707l-.312-.206-2.859-6.977.311.206Z" transform="translate(1167.713 573.891)"/></g><g transform="translate(0.312 0.206)"><path class="b" d="M-1173.212-581.562l7.053,16.3-3.215,1.18-1.616-3.758-7.376,2.706-1.546,4.918-3.237,1.188,6.87-21.4Zm-4.3,13.273,5.628-2.065-2.86-6.977-2.768,9.042" transform="translate(1183.148 581.562)"/></g><g transform="translate(0 1.125)"><path class="b" d="M-1183.431-558.2l-.311-.206,6.87-21.4.312.206Z" transform="translate(1183.742 579.811)"/></g><g transform="translate(6.87 0)"><path class="b" d="M-1170.337-580.624l-.312-.206,3.067-1.125.311.206Z" transform="translate(1170.649 581.955)"/></g></g><g class="a" transform="translate(-1191.671 -625.149)"><g transform="translate(11.138 1.16)"><path class="b" d="M-1125.2-583.006l-.312-.206-.072-13.129.312.206Z" transform="translate(1125.585 596.342)"/></g><g transform="translate(11.138 0)"><path class="b" d="M-1125.274-597.186l-.312-.206,3.161-1.16.311.206Z" transform="translate(1125.585 598.552)"/></g><g transform="translate(3.197 9.771)"><path class="b" d="M-1132.19-569.553l-.311-.206-8.219-10.169.311.206Z" transform="translate(1140.721 579.929)"/></g><g transform="translate(0.311 0.206)"><path class="b" d="M-1131.92-598.159l.1,18.845-2.987,1.1-8.219-10.169.072,13.158-3.166,1.161-.1-18.845,2.991-1.1,8.219,10.141-.072-13.129Z" transform="translate(1146.22 598.159)"/></g><g transform="translate(0 5.246)"><path class="b" d="M-1146.4-569.5l-.312-.206-.1-18.845.312.206Z" transform="translate(1146.813 588.554)"/></g><g transform="translate(0 4.148)"><path class="b" d="M-1146.5-589.342l-.312-.206,2.991-1.1.311.206Z" transform="translate(1146.813 590.645)"/></g></g><g class="a" transform="translate(-1174.381 -627.406)"><g transform="translate(3.249 12.941)"><path class="b" d="M-1107.355-574.912l-.312-.206,8.371-3.071.312.206Z" transform="translate(1107.667 578.189)"/></g><g transform="translate(0.311 0.206)"><path class="b" d="M-1110.1-602.46l.088,16.012,8.371-3.071.016,2.833-11.533,4.231-.1-18.845Z" transform="translate(1113.266 602.46)"/></g><g transform="translate(0 1.16)"><path class="b" d="M-1113.445-581.592l-.312-.206-.1-18.845.312.206Z" transform="translate(1113.86 600.643)"/></g><g transform="translate(0 0)"><path class="b" d="M-1113.548-601.487l-.312-.206,3.162-1.16.311.206Z" transform="translate(1113.86 602.854)"/></g></g><g class="a" transform="translate(-1161.852 -636.298)"><g transform="translate(4.417 12.723)"><path class="b" d="M-1081.252-589.226l-.311-.206a3.461,3.461,0,0,0,3.12.028,6.259,6.259,0,0,0,4.238-6.149l.312.206a6.258,6.258,0,0,1-4.238,6.149A3.462,3.462,0,0,1-1081.252-589.226Z" transform="translate(1081.563 595.553)"/></g><g transform="translate(11.711 1.16)"><path class="b" d="M-1067.285-605.822l-.311-.206-.063-11.563.311.206Z" transform="translate(1067.659 617.591)"/></g><g transform="translate(11.711)"><path class="b" d="M-1067.348-618.435l-.311-.206,3.162-1.16.311.206Z" transform="translate(1067.659 619.801)"/></g><g transform="translate(0.063 16.965)"><path class="b" d="M-1087.556-582.239l-.311-.206c-1.332-.882-1.981-2.642-1.994-5.022l.312.206C-1089.536-584.881-1088.888-583.121-1087.556-582.239Z" transform="translate(1089.861 587.467)"/></g><g transform="translate(0.312 0.206)"><path class="b" d="M-1074.514-619.408l.063,11.509a10.6,10.6,0,0,1-7.383,10.463c-5.081,1.864-7.465-.421-7.49-5.006l-.063-11.509,3.165-1.161.063,11.563c.017,3.047,1.77,3.945,4.308,3.014a6.258,6.258,0,0,0,4.238-6.149l-.063-11.563Z" transform="translate(1089.387 619.408)"/></g><g transform="translate(0 5.456)"><path class="b" d="M-1089.606-597.687l-.312-.206-.063-11.509.311.206Z" transform="translate(1089.981 609.403)"/></g><g transform="translate(0 4.295)"><path class="b" d="M-1089.669-610.248l-.311-.206,3.165-1.161.311.206Z" transform="translate(1089.981 611.616)"/></g></g><g class="a" transform="translate(-1146.131 -640.255)"><g transform="translate(12.159 13.718)"><path class="b" d="M-1034.911-597.236l-.311-.206-1.62-3.757.311.206Z" transform="translate(1036.843 601.199)"/></g><g transform="translate(5.642 11.208)"><path class="b" d="M-1048.953-603.71l-.312-.206,5.632-2.066.312.206Z" transform="translate(1049.264 605.982)"/></g><g transform="translate(8.414 4.231)"><path class="b" d="M-1040.81-612.1l-.311-.206-2.86-6.977.311.206Z" transform="translate(1043.981 619.28)"/></g><g transform="translate(0.311 0.206)"><path class="b" d="M-1049.483-626.951l7.053,16.3-3.215,1.179-1.62-3.757-7.372,2.7-1.546,4.918-3.241,1.189,6.874-21.4Zm-4.3,13.274,5.632-2.066-2.86-6.977-2.772,9.043" transform="translate(1059.424 626.951)"/></g><g transform="translate(0 1.125)"><path class="b" d="M-1059.706-603.59l-.312-.206,6.874-21.4.311.206Z" transform="translate(1060.017 625.2)"/></g><g transform="translate(6.874 0)"><path class="b" d="M-1046.605-626.013l-.311-.206,3.067-1.125.311.206Z" transform="translate(1046.917 627.344)"/></g></g><g class="a" transform="translate(-1126.752 -648.963)"><g transform="translate(11.134 1.161)"><path class="b" d="M-1001.477-628.393l-.311-.206-.072-13.129.311.206Z" transform="translate(1001.861 641.729)"/></g><g transform="translate(11.134)"><path class="b" d="M-1001.549-642.574l-.311-.206,3.165-1.161.311.206Z" transform="translate(1001.861 643.942)"/></g><g transform="translate(3.193 9.772)"><path class="b" d="M-1008.465-614.94l-.311-.206L-1017-625.316l.311.206Z" transform="translate(1016.996 625.316)"/></g><g transform="translate(0.311 0.206)"><path class="b" d="M-1008.188-643.548l.1,18.845-2.991,1.1-8.219-10.169.072,13.158-3.162,1.16-.1-18.845,2.99-1.1,8.215,10.142-.072-13.129Z" transform="translate(1022.488 643.548)"/></g><g transform="translate(0 5.246)"><path class="b" d="M-1022.667-614.893l-.311-.206-.1-18.845.311.206Z" transform="translate(1023.081 633.944)"/></g><g transform="translate(0 4.148)"><path class="b" d="M-1022.77-634.732l-.311-.206,2.99-1.1.312.206Z" transform="translate(1023.081 636.035)"/></g></g><g class="a" transform="translate(-1109.912 -654.506)"><g transform="translate(12.618 11.247)"><path class="b" d="M-966.6-628.633l-.311-.206-.023-4.231.312.206Z" transform="translate(966.935 633.071)"/></g><g transform="translate(5.014 15.478)"><path class="b" d="M-981.117-623.079l-.312-.207a4.908,4.908,0,0,0,4.466.143,9.548,9.548,0,0,0,3.161-1.865l.311.207a9.55,9.55,0,0,1-3.161,1.864A4.909,4.909,0,0,1-981.117-623.079Z" transform="translate(981.429 625.007)"/></g><g transform="translate(9.662 9.604)"><path class="b" d="M-972.243-633.274l-.311-.206-.015-2.722.311.206Z" transform="translate(972.569 636.202)"/></g><g transform="translate(9.662 7.365)"><path class="b" d="M-972.258-638.024l-.311-.206,6.1-2.239.312.206Z" transform="translate(972.569 640.469)"/></g><g transform="translate(9.264)"><path class="b" d="M-973.017-653.491l-.312-.206c2.466-.905,4.388-1.07,6.014-.4l.312.206C-968.629-654.561-970.551-654.4-973.017-653.491Z" transform="translate(973.329 654.506)"/></g><g transform="translate(0 0.809)"><path class="b" d="M-988.03-633.285l-.312-.206c-1.656-1.1-2.627-3.2-2.643-6.215a14.047,14.047,0,0,1,9.264-13.258l.312.206a14.047,14.047,0,0,0-9.264,13.257C-990.657-636.488-989.687-634.383-988.03-633.285Z" transform="translate(990.985 652.964)"/></g><g transform="translate(0.312 0.206)"><path class="b" d="M-981.127-653.3c2.466-.905,4.388-1.07,6.014-.4l.018,3.261c-1.528-.845-3.45-.679-5.741.162a9.8,9.8,0,0,0-6.366,9.063c.023,4.149,2.655,5.779,6.292,4.445a9.553,9.553,0,0,0,3.161-1.864l-.023-4.231-2.941,1.079-.015-2.722,6.1-2.239.048,8.787a14.523,14.523,0,0,1-6.442,4.308c-5.506,2.02-9.339-.381-9.371-6.393A14.047,14.047,0,0,1-981.127-653.3Z" transform="translate(990.391 654.113)"/></g></g></g><g transform="translate(-81.452 173.724)"><g class="a" transform="translate(-882.251 -746.693)"><g transform="translate(0 14.062)"><path class="b" d="M-874.206-715.135l-.431.216c-.512.257-1.4-.042-2.646-.994a26.106,26.106,0,0,1-4.968-5.175l.431-.216a26.087,26.087,0,0,0,4.968,5.175C-875.6-715.177-874.718-714.879-874.206-715.135Z" transform="translate(882.251 721.305)"/></g><g transform="translate(3.21 4.071)"><path class="b" d="M-875.955-739.127l.431-.216c-.331.166-.5.58-.5,1.246.012,1.895,1.157,3.262,3.612,6.412,3.061,3.926,4.491,6.44,4.511,9.653.009,1.526-.356,2.517-1.109,2.9l-.431.217c.754-.378,1.119-1.369,1.109-2.9-.02-3.213-1.45-5.726-4.511-9.653-2.455-3.149-3.6-4.517-3.612-6.412C-876.459-738.547-876.287-738.961-875.955-739.127Z" transform="translate(876.455 739.343)"/></g><g transform="translate(1.217)"><path class="b" d="M-880.053-746.284l.431-.217c1-.5,2.593-.029,4.567,1.473l-.431.217C-877.46-746.313-879.054-746.786-880.053-746.284Z" transform="translate(880.053 746.693)"/></g><g transform="translate(0 0.216)"><path class="b" d="M-876.467-744.637a22.58,22.58,0,0,1,4.619,4.648l.02,3.1a20.914,20.914,0,0,0-4.106-4.344c-1.981-1.508-3.117-1.443-3.106.251.012,1.895,1.158,3.262,3.612,6.412,3.061,3.927,4.491,6.44,4.511,9.653.023,3.535-1.966,4.2-6.136,1.025a27.42,27.42,0,0,1-5.177-5.163l-.021-3.181a26.1,26.1,0,0,0,4.968,5.175c2.121,1.615,3.185,1.351,3.174-.317-.012-1.867-1.158-3.348-3.7-6.54-3.014-3.8-4.355-6.566-4.373-9.457C-882.207-746.741-879.915-747.261-876.467-744.637Z" transform="translate(882.251 746.302)"/></g><g transform="translate(5.784 1.666)"><path class="b" d="M-871.809-743.469l.431-.217a22.581,22.581,0,0,1,4.619,4.649l-.432.216A22.575,22.575,0,0,0-871.809-743.469Z" transform="translate(871.809 743.686)"/></g><g transform="translate(10.403 6.314)"><path class="b" d="M-863.469-735.077l.431-.216.02,3.1-.431.216Z" transform="translate(863.469 735.293)"/></g></g><g class="a" transform="translate(-870.07 -734.858)"><g transform="translate(3.029 14.172)"><path class="b" d="M-853.352-699.521l.431-.216-1.437,3.583-.431.216Z" transform="translate(854.79 699.737)"/></g><g transform="translate(5.263 11.726)"><path class="b" d="M-850.755-703.938l.431-.216,5.263,4.006-.431.216Z" transform="translate(850.755 704.154)"/></g><g transform="translate(5.263 5.055)"><path class="b" d="M-848.18-715.982l.431-.216-2.576,6.671-.431.216Z" transform="translate(850.755 716.198)"/></g><g transform="translate(0 0.216)"><path class="b" d="M-851-722.753l6.629,25.363-3.006-2.289-1.52-5.833-6.9-5.249-1.438,3.582-3.029-2.305,6.393-15.45Zm-4,9.544,5.262,4.006-2.687-10.677-2.576,6.67" transform="translate(860.258 724.935)"/></g><g transform="translate(9.259 2.182)"><path class="b" d="M-843.541-721.17l.431-.216,6.629,25.362-.431.216Z" transform="translate(843.541 721.386)"/></g><g transform="translate(6.393 0)"><path class="b" d="M-848.715-725.109l.431-.216,2.866,2.182-.431.216Z" transform="translate(848.715 725.325)"/></g></g><g class="a" transform="translate(-852.566 -726.4)"><g transform="translate(2.84 9.282)"><path class="b" d="M-823.528-693.08l.431-.216.085,13.26-.431.216Z" transform="translate(823.528 693.296)"/></g><g transform="translate(0 0)"><path class="b" d="M-828.655-709.839l.431-.216,2.888,2.2-.431.216Z" transform="translate(828.655 710.055)"/></g><g transform="translate(2.888 2.198)"><path class="b" d="M-823.441-705.87l.431-.216,5.546,19.1-.431.216Z" transform="translate(823.441 706.086)"/></g><g transform="translate(9.167 17.723)"><path class="b" d="M-807.343-677.84l.431-.216-4.762,9.571-.431.216Z" transform="translate(812.105 678.056)"/></g><g transform="translate(0 0.216)"><path class="b" d="M-811.978-696.97l.131,20.415-2.794-2.127-.085-13.26-4.762,9.571-1.4-1.062-4.932-16.949.085,13.26-2.794-2.127-.131-20.415,2.888,2.2,5.546,19.1,5.355-10.806Z" transform="translate(828.655 709.665)"/></g><g transform="translate(16.677 12.695)"><path class="b" d="M-798.546-686.919l.431-.216.131,20.415-.431.216Z" transform="translate(798.546 687.135)"/></g><g transform="translate(13.789 10.496)"><path class="b" d="M-803.76-690.888l.431-.216,2.888,2.2-.431.216Z" transform="translate(803.76 691.104)"/></g></g><g class="a" transform="translate(-834.374 -712.553)"><g transform="translate(8.817 19.298)"><path class="b" d="M-779.893-650l.431-.216.05,7.768-.431.216Z" transform="translate(779.893 650.213)"/></g><g transform="translate(0)"><path class="b" d="M-795.811-684.838l.431-.216,3.145,2.394-.431.216Z" transform="translate(795.811 685.054)"/></g><g transform="translate(3.145 2.394)"><path class="b" d="M-790.134-680.516l.431-.216,4.251,12.277-.431.216Z" transform="translate(790.134 680.733)"/></g><g transform="translate(16.645 29.404)"><path class="b" d="M-764.322-631.751l.431-.216-1.437,3.583-.431.216Z" transform="translate(765.759 631.967)"/></g><g transform="translate(18.88 26.957)"><path class="b" d="M-761.725-636.168l.431-.216,5.263,4.006-.431.216Z" transform="translate(761.725 636.384)"/></g><g transform="translate(8.817 11.242)"><path class="b" d="M-773.941-664.542l.431-.216-5.952,8.056-.431.216Z" transform="translate(779.893 664.758)"/></g><g transform="translate(11.646 8.865)"><path class="b" d="M-774.785-668.833l.431-.216,3.123,2.377-.431.216Z" transform="translate(774.785 669.049)"/></g><g transform="translate(0 0.216)"><path class="b" d="M-781.043-673.422l-5.952,8.056.05,7.768-2.819-2.146-.05-7.768-6-17.152,3.145,2.394,4.251,12.277,4.25-5.806Z" transform="translate(795.811 684.664)"/></g><g transform="translate(18.88 20.287)"><path class="b" d="M-759.149-648.211l.431-.216-2.576,6.671-.431.216Z" transform="translate(761.725 648.428)"/></g><g transform="translate(20.009 15.231)"><path class="b" d="M-759.685-657.339l.431-.216,2.866,2.182-.431.216Z" transform="translate(759.685 657.555)"/></g><g transform="translate(22.876 17.413)"><path class="b" d="M-754.511-653.4l.431-.216,6.63,25.362-.431.216Z" transform="translate(754.511 653.616)"/></g><g transform="translate(13.616 15.447)"><path class="b" d="M-761.969-654.983l6.63,25.363-3.007-2.289-1.519-5.834-6.9-5.249-1.437,3.583-3.029-2.305,6.393-15.45Zm-4,9.544,5.263,4.006-2.687-10.677-2.575,6.67" transform="translate(771.228 657.165)"/></g></g><g class="a" transform="translate(-802.672 -688.421)"><g transform="translate(2.996 8.414)"><path class="b" d="M-733.165-626.078l.431-.216.091,14.252-.431.216Z" transform="translate(733.165 626.295)"/></g><g transform="translate(0 0)"><path class="b" d="M-738.574-641.269l.431-.216,2.794,2.127-.431.216Z" transform="translate(738.574 641.485)"/></g><g transform="translate(2.794 2.127)"><path class="b" d="M-733.53-637.429l.431-.216,7.71,20.024-.431.216Z" transform="translate(733.53 637.645)"/></g><g transform="translate(0 0.216)"><path class="b" d="M-725.2-630.918l.131,20.415-2.794-2.127-7.71-20.052.091,14.252-2.957-2.251-.131-20.415,2.794,2.127,7.71,20.024-.091-14.225Z" transform="translate(738.574 641.095)"/></g><g transform="translate(13.37 10.177)"><path class="b" d="M-714.436-622.895l.431-.216.131,20.415-.431.216Z" transform="translate(714.436 623.111)"/></g><g transform="translate(10.413 7.926)"><path class="b" d="M-719.774-626.958l.431-.216,2.957,2.251-.431.216Z" transform="translate(719.774 627.174)"/></g></g></g></g></svg>