<svg xmlns="http://www.w3.org/2000/svg" width="30.805" height="43.015" viewBox="0 0 30.805 43.015"><defs><style>.a{fill:#030124;opacity:0.2;isolation:isolate;}.b{fill:#e02ea1;stroke:#fff;}.c{fill:#9a0063;}</style></defs><g transform="translate(2449.168 364.952)"><ellipse class="a" cx="6.016" cy="2.005" rx="6.016" ry="2.005" transform="translate(-2439.53 -325.948)"/><g transform="translate(-2448.611 -364.33)"><path class="b" d="M-2414.131-336.548a15.693,15.693,0,0,1-3.933,10.629c-1.52,1.81-3.122,3.547-4.675,5.326a29.255,29.255,0,0,0-5.219,8.174,1.052,1.052,0,0,1-1.017.745,1.036,1.036,0,0,1-1.008-.7,32.98,32.98,0,0,0-6.4-9.548c-1.526-1.7-3.072-3.394-4.423-5.228a14.741,14.741,0,0,1-2.6-12.705,14.453,14.453,0,0,1,9.625-10.868,14.187,14.187,0,0,1,13.9,2.3,14.436,14.436,0,0,1,5.731,10.384c.008.076.015.153.016.23C-2414.129-337.4-2414.131-336.975-2414.131-336.548Z" transform="translate(2443.876 351.616)"/></g><circle class="c" cx="6" cy="6" r="6" transform="translate(-2439.68 -355.71)"/></g></svg>