<svg xmlns="http://www.w3.org/2000/svg" width="11.436" height="12.001" viewBox="0 0 11.436 12.001"><defs><style>.a{fill:#fff;}</style></defs><g transform="translate(-488.656 -631.729)"><g transform="translate(488.656 631.729)"><path class="a" d="M499.562,635.787a.531.531,0,0,1-.46-.265,5.471,5.471,0,0,0-9.458-.023.53.53,0,1,1-.915-.536,6.531,6.531,0,0,1,11.292.028.529.529,0,0,1-.193.724A.519.519,0,0,1,499.562,635.787Z" transform="translate(-488.656 -631.729)"/></g><g transform="translate(488.894 636.792) rotate(-30)"><path class="a" d="M4.006,0A3.959,3.959,0,0,0,2.829.2,2.09,2.09,0,1,1,.361,2.361,4,4,0,1,0,4.006,0Z"/></g></g></svg>