<svg xmlns="http://www.w3.org/2000/svg" xmlns:xlink="http://www.w3.org/1999/xlink" width="35.253" height="42.885" viewBox="0 0 35.253 42.885"><defs><style>.a{fill:#030124;opacity:0.2;}.b{fill:#c3a8d0;stroke:#fff;}.c{filter:url(#a);}</style><filter id="a" x="0" y="0" width="35.253" height="42.885" filterUnits="userSpaceOnUse"><feOffset input="SourceAlpha"/><feGaussianBlur stdDeviation="2" result="b"/><feFlood flood-opacity="0.161"/><feComposite operator="in" in2="b"/><feComposite in="SourceGraphic"/></filter></defs><g transform="translate(-545.493 -423.401)"><ellipse class="a" cx="6.388" cy="2.129" rx="6.388" ry="2.129" transform="translate(556.968 457.656)"/><g class="c" transform="matrix(1, 0, 0, 1, 545.49, 423.4)"><path class="b" d="M2398.681,716.289a11.734,11.734,0,0,1-2.941,7.947c-1.133,1.354-2.333,2.653-3.5,3.984a21.872,21.872,0,0,0-3.9,6.113.785.785,0,0,1-.761.557.775.775,0,0,1-.754-.527,24.664,24.664,0,0,0-4.786-7.14c-1.142-1.269-2.3-2.539-3.308-3.911a11.019,11.019,0,0,1-1.944-9.5,10.807,10.807,0,0,1,7.2-8.129,10.611,10.611,0,0,1,10.4,1.718,10.8,10.8,0,0,1,4.285,7.767c.006.057.012.114.013.172Q2398.682,715.813,2398.681,716.289Zm-5.227-.1a5.878,5.878,0,1,0-5.787,5.853A5.881,5.881,0,0,0,2393.454,716.186Z" transform="translate(-2369.93 -698.5)"/></g></g></svg>