<svg xmlns="http://www.w3.org/2000/svg" width="513.369" height="592.994" viewBox="0 0 513.369 592.994"><defs><style>.a{opacity:0.8;}.b{fill:#fff;}.c{fill:#daecda;}</style></defs><g transform="translate(2789.68 884.71)"><g class="a"><path class="b" d="M-2582.89-780.725l1.966-9.938-28.828-4.816-1.84,9.6Z"/><path class="b" d="M-2431.712-558.92a3.909,3.909,0,0,1-1.582-.783l-18.389-3.3-15.52,68.1,102.027,17.617,15.574-67.368-79.968-14.371A3.927,3.927,0,0,1-2431.712-558.92Z"/><path class="b" d="M-2426.133-565.462l78.1,14.034,20.792-89.938-78.374-12.829Z"/><path class="b" d="M-2562.043-381.553l38.234,15.874,3.228-17.18-41.8-7.252Z"/><path class="b" d="M-2365.317-828.524-2404.5-659.031l37.292,6.1,39.033-168.84Z"/><path class="b" d="M-2486.133-434.147l29.569-129.738-85.6-15.383-34.179,147.843,86.007,15.457Z"/><path class="b" d="M-2579.963-795.525l1.806-9.131-28.9-4.87-1.76,9.18Z"/><path class="b" d="M-2606.127-814.391l28.931,4.875,2.146-10.851-28.935-5.2Z"/><path class="b" d="M-2503.737-360.554l2.246-7.158,2.63-11.377-16.839-2.922-3.365,17.914Z"/><path class="b" d="M-2542.091-830.289l-30.781-5.041-1.763,10.005,30.144,5.417Z"/><path class="b" d="M-2554.72-775.663l2.365-10.228-23.682-3.957-1.978,10Z"/><path class="b" d="M-2549.147-799.767l-24.124-4.065-1.8,9.124,23.838,3.983Z"/><path class="b" d="M-2489.4-807.5a2.518,2.518,0,0,1-.03.572,2.459,2.459,0,0,1-.274.744l-36,155.7,106.691,19.02,45.884-198.475-106.6-19.4Z"/><path class="b" d="M-2545.608-815.076l-24.566-4.415-2.136,10.8,24.28,4.091Z"/><path class="b" d="M-2426.795-366.373l-67.18-11.862-2.711,11.73c-.015.063-.031.123-.05.183l-5.134,16.367,69.369,8.263Z"/><path class="b" d="M-2724.728-511.1l32.549,6.3,2.24-9.688-32.77-5.344Z"/><path class="b" d="M-2659.711-600.958l-75.769-13.616-16.425,68.926,76.4,13.019Z"/><path class="b" d="M-2686.923-527.54l-32.716-5.575-1.951,8.441,32.77,5.343Z"/><path class="b" d="M-2444.306-326.512l31.1,11.954.008-8.578Z"/><path class="b" d="M-2507.491-332.04l23.756,9.636,2.987-4.8-9.541-4.5a2.476,2.476,0,0,1-1.183-3.3,2.478,2.478,0,0,1,3.3-1.183l42.458,20.039a2.476,2.476,0,0,1,1.183,3.3,2.48,2.48,0,0,1-2.8,1.358,2.562,2.562,0,0,1-.5-.175l-28.408-13.408-2.837,4.561,35.851,14.542,6.309-12.393-26.928-10.35a2.478,2.478,0,0,1-1.519-2.894,2.477,2.477,0,0,1,2.675-1.88l52.208,5.666.063.006,10.423,1.131,1.382-5.98-104.767-12.481Z"/><path class="b" d="M-2678.321-502.125l1.205-23.311a3.522,3.522,0,0,1,.06-.422l-4.983-.849c0,.022,0,.044-.008.066l-5.266,22.776Z"/><path class="b" d="M-2751-509.125l-9.183-1.777-9.512,39.918,9.376,2.168Z"/><path class="c" d="M-2695.551-700.663l-18.616-3.346-19.7,82.677,23.067,4.145Z"/><path class="b" d="M-2701.833-755.767l19.09,4.413,9.924-38.486-20.037-3.6Z"/><path class="b" d="M-2691.246-800.2l8.639,1.553,9.927-39.266-9.186-1.651Z"/><path class="b" d="M-2383.781-396.818l17.487-75.642-102.012-17.614-13,57.036-4.149,17.948Z"/><path class="b" d="M-2667.792-837.034l-9.927,39.266,6.694,1.2,10.821-39.106Z"/><path class="b" d="M-2724.53-533.948l-28.985-4.939-5.06,21.233,28.981,5.608Z"/><path class="b" d="M-2683.981-746.556l-19-4.393-9.576,40.184,18.491,3.323Z"/><path class="b" d="M-2492.123-408.237l-86.007-15.456-5.739,24.827,19.294,3.347h0l44.9,7.791,2.145-11.415a2.477,2.477,0,0,1,2.891-1.977,2.481,2.481,0,0,1,1.977,2.892l-2.132,11.347,17.042,2.957Z"/><path class="b" d="M-2420.125-626.637l-106.69-19.02-13.784,59.624,106.656,19.167Z"/><path class="b" d="M-2579.512-483.005l5.834-25.237-96.533-16.45-1.236,23.9Z"/><path class="b" d="M-2654.094-839.605l22.033,3.959,9.309-40.267-22.022-4.007Z"/><path class="b" d="M-2505.224-355.814l-17.272-3.993h0l-.01,0a2.513,2.513,0,0,1-.38-.122l-42.517-17.652a2.475,2.475,0,0,1-1.525-2.189l-.442-11.2-17.615-3.056-6.459,27.939,79.35,32.186Z"/><path class="b" d="M-2649.167-740.147l-29.958-5.4-10.053,38.988,32.1,5.769Z"/><path class="b" d="M-2556.53-582.415l-96.348-17.315-15.782,68.267,96.547,16.452Z"/><path class="b" d="M-2424.187-355.663l29.719,5.075,2.238-9.681-29.68-5.241Z"/><path class="c" d="M-2541.184-648.794l-93.41-16.652c-.041-.008-.083-.016-.123-.026a2.476,2.476,0,0,1-1.509-1.047,2.477,2.477,0,0,1-.346-1.923l4.8-20.759-58.9-10.585-15.251,83.476,150.961,27.13Z"/><path class="b" d="M-2585.782-455.883l-62.506-11.111c-.042-.007-.085-.016-.126-.026a2.476,2.476,0,0,1-1.879-2.846,2.478,2.478,0,0,1,2.872-2.005l62.756,11.155,3.59-15.528-91.428-17.691-18.543,88.356,85.607,34.724Z"/><path class="b" d="M-2679.312-495.253l-35.722-6.912-6.35,27.468a2.477,2.477,0,0,1-2.971,1.855,2.476,2.476,0,0,1-1.855-2.971l6.31-27.294-10.684-2.067-6.222,26.911a2.476,2.476,0,0,1-2.971,1.855,2.477,2.477,0,0,1-1.855-2.97l6.182-26.738-10.685-2.067-9.443,40.846,57.564,23.626a2.476,2.476,0,0,1,1.351,3.232,2.475,2.475,0,0,1-2.846,1.472,2.525,2.525,0,0,1-.385-.122l-8.787-3.607L-2717.814-428a2.478,2.478,0,0,1-2.662,1.109,2.489,2.489,0,0,1-.415-.135l-32.242-13.746a2.479,2.479,0,0,1-1.442-2.837l3.793-16.4-8.437-3.462-11.625-2.688-6.132,25.732,79.4,32.207Z"/><path class="b" d="M-2746.139-458.11l-3.142,13.592,28.377,12.1,7.577-12.223Z"/><path class="b" d="M-2408.244-322.6l-.011,11.647a2.477,2.477,0,0,1-1.074,2.041,2.478,2.478,0,0,1-1.96.371,2.492,2.492,0,0,1-.331-.1l-20.647-7.936-6.351,12.475,30.539,12.387,6.961-30.109Z"/><path class="b" d="M-2362.311-652.125l36.184,5.923,38.867-168.12-36.037-6.557Z"/><path class="b" d="M-2658.976-840.482l9.323-40.325-21.454-3.9-9.608,40.321Z"/><path class="b" d="M-2492.857-383.067l101.744,17.966,5.545-23.986-101.673-18.272Z"/><path class="b" d="M-2427.553-341.1l30.064,3.581,1.9-8.233-29.719-5.075Z"/><path class="b" d="M-2515.128-761.5l-36.275-6.519-19.137,82.777,36.275,6.519Z"/><path class="b" d="M-2494.089-852.5l-36.257-6.6-9.264,40.07,36.275,6.519Z"/><path class="b" d="M-2572.013-840.21l31.04,5.083,5.748-24.862-32.269-5.871Z"/><path class="b" d="M-2595.3-870.884l-7.755,40.452,23.542,4.231,7.143-40.545-22.927-4.171C-2595.3-870.906-2595.295-870.9-2595.3-870.884Z"/><path class="b" d="M-2535.829-671.958l-91.063-16.365-4.267,18.459,91.093,16.239Z"/><path class="b" d="M-2638.994-697.545l19.137-82.777-15.619-2.807-16.724,83.211Z"/><path class="b" d="M-2677.885-750.361l29.694,5.357,2.306-11.475-12.867-2.35a2.431,2.431,0,0,1-.572-.058,2.41,2.41,0,0,1-.294-.1l-15.321-2.8Z"/><path class="b" d="M-2556.284-768.9l-56.74-10.2-19.137,82.777,56.739,10.2Z"/><path class="b" d="M-2504.452-807.68l-36.275-6.519-9.112,39.413,36.275,6.519Z"/><path class="b" d="M-2644.909-761.336l1.516-7.542-10.63-1.941-1.734,7.5Z"/><path class="b" d="M-2628.118-829.9l-6.147,39.946,15.847,2.848,7.608-39.683Z"/><path class="b" d="M-2673.7-766.593l13.064,2.385,1.734-7.5-12.873-2.351Z"/><path class="b" d="M-2670.534-778.868l28.117,5.134,2.064-10.272-27.579-4.956Z"/><path class="b" d="M-2627.181-834.768l17.3,3.109,7.764-40.5-15.76-2.868Z"/><path class="b" d="M-2647.137-801.517l-16.593-2.844-2.4,8.676,26.988,4.85L-2633-830.78l-22.314-4.011-2.642,9.549,14.407,2.376a2.488,2.488,0,0,1,2.041,2.847,2.478,2.478,0,0,1-2.847,2.041l-14.93-2.463-3.122,11.282,16.1,2.76a2.473,2.473,0,0,1,2.023,2.859A2.477,2.477,0,0,1-2647.137-801.517Z"/></g><path class="b" d="M-2781.2-466.043l-8.477-2.007.688-2.9a3.646,3.646,0,0,1,1.095-2.053,2.085,2.085,0,0,1,1.9-.344,1.884,1.884,0,0,1,.974.562,2.087,2.087,0,0,1,.5,1.091,1.92,1.92,0,0,1,.953-.9,2.1,2.1,0,0,1,1.326-.083,2.322,2.322,0,0,1,1.653,1.2,3.424,3.424,0,0,1,.121,2.344Zm-4.559-2.635.342-1.444a1.723,1.723,0,0,0-.057-1.148,1.1,1.1,0,0,0-.791-.6,1.114,1.114,0,0,0-.993.143,1.861,1.861,0,0,0-.544,1.049l-.339,1.432Zm1.083.257,2.649.627.387-1.636a1.633,1.633,0,0,0-.087-1.165,1.239,1.239,0,0,0-.862-.615,1.243,1.243,0,0,0-1.671,1.03Z"/><path class="b" d="M-2778.563-477.192a2.214,2.214,0,0,1-.626.024,2.26,2.26,0,0,1,.312,1.82,2.284,2.284,0,0,1-.908,1.421,1.784,1.784,0,0,1-1.481.283,1.842,1.842,0,0,1-1.369-1.115,3.731,3.731,0,0,1-.031-2.267l.205-.867-.413-.1a1.13,1.13,0,0,0-.848.088,1.113,1.113,0,0,0-.491.763,1.283,1.283,0,0,0,.054.849.77.77,0,0,0,.541.454l-.335,1.414a1.613,1.613,0,0,1-.888-.573,2.349,2.349,0,0,1-.486-1.1,3.375,3.375,0,0,1,.056-1.379,2.718,2.718,0,0,1,.974-1.632,2.035,2.035,0,0,1,1.723-.3l2.841.672a3.3,3.3,0,0,0,1.413.083l.1.023Zm-1.387,1.314a1.653,1.653,0,0,0-.017-.838,1.4,1.4,0,0,0-.415-.685l-1.188-.281-.181.762a2.145,2.145,0,0,0-.006,1.247.912.912,0,0,0,.681.579.848.848,0,0,0,.713-.117A1.073,1.073,0,0,0-2779.95-475.878Z"/><path class="b" d="M-2783.915-482.683l.738.131a2.327,2.327,0,0,1-.411-2.034q.466-1.967,2.728-1.469l4.163.986-.335,1.415-4.082-.967a1.338,1.338,0,0,0-.949.049,1.126,1.126,0,0,0-.489.779,1.4,1.4,0,0,0,.473,1.458l4.483,1.062-.335,1.415-6.3-1.492Z"/><path class="b" d="M-2783.767-490.137l1.531.362.264-1.111,1.048.248-.263,1.112,3.516.833a.8.8,0,0,0,.555-.019.682.682,0,0,0,.281-.472,2.246,2.246,0,0,0,.058-.509l1.1.259a3.575,3.575,0,0,1-.087.964q-.385,1.631-2.185,1.2l-3.569-.845-.245,1.036-1.048-.248.245-1.037-1.531-.362Z"/><path class="b" d="M-2780.7-493.2a2.273,2.273,0,0,1-.389-1.942q.478-2.016,2.784-1.5l4.116.974-.335,1.415-4.063-.962a1.276,1.276,0,0,0-.99.064,1.186,1.186,0,0,0-.468.765,1.4,1.4,0,0,0,.457,1.449l4.5,1.065-.335,1.415-8.943-2.118.335-1.414Z"/><path class="b" d="M-2772.958-500.858a2.214,2.214,0,0,1-.626.024,2.263,2.263,0,0,1,.312,1.82,2.287,2.287,0,0,1-.908,1.421,1.781,1.781,0,0,1-1.481.282,1.839,1.839,0,0,1-1.369-1.114,3.731,3.731,0,0,1-.031-2.267l.205-.867-.413-.1a1.135,1.135,0,0,0-.848.088,1.113,1.113,0,0,0-.491.763,1.277,1.277,0,0,0,.054.849.769.769,0,0,0,.541.454l-.335,1.414a1.613,1.613,0,0,1-.888-.573,2.34,2.34,0,0,1-.486-1.1,3.359,3.359,0,0,1,.056-1.379,2.714,2.714,0,0,1,.974-1.632,2.037,2.037,0,0,1,1.723-.306l2.841.673a3.3,3.3,0,0,0,1.413.083l.1.024Zm-1.387,1.314a1.653,1.653,0,0,0-.017-.838,1.4,1.4,0,0,0-.415-.685l-1.188-.281-.181.762a2.145,2.145,0,0,0-.006,1.247.912.912,0,0,0,.681.579.852.852,0,0,0,.713-.117A1.081,1.081,0,0,0-2774.345-499.544Z"/><path class="b" d="M-2779.732-507.172l1.531.363.263-1.112,1.048.248-.263,1.112,3.516.833a.8.8,0,0,0,.555-.019.683.683,0,0,0,.281-.472,2.23,2.23,0,0,0,.059-.508l1.094.259a3.582,3.582,0,0,1-.086.963q-.387,1.629-2.185,1.2l-3.569-.845-.245,1.036-1.049-.248.246-1.037-1.531-.362Z"/><path class="b" d="M-2778.09-514.106l1.531.363.263-1.112,1.049.248-.264,1.112,3.516.833a.8.8,0,0,0,.555-.019.679.679,0,0,0,.281-.472,2.183,2.183,0,0,0,.059-.508l1.094.259a3.562,3.562,0,0,1-.086.963q-.387,1.631-2.185,1.2l-3.569-.845-.245,1.036-1.049-.248.246-1.036-1.531-.363Z"/><path class="b" d="M-2775.023-517.167a2.275,2.275,0,0,1-.388-1.942q.477-2.015,2.784-1.5l4.116.975-.335,1.414-4.064-.962a1.273,1.273,0,0,0-.989.064,1.178,1.178,0,0,0-.468.765,1.4,1.4,0,0,0,.456,1.449l4.5,1.066-.335,1.414-8.943-2.117.335-1.415Z"/><path class="b" d="M-2771.443-521.557a3.831,3.831,0,0,1-1.581-.762,2.755,2.755,0,0,1-.9-1.3,2.984,2.984,0,0,1-.038-1.62,2.827,2.827,0,0,1,1.311-1.875,3.317,3.317,0,0,1,2.381-.343l.333.073a3.852,3.852,0,0,1,1.58.752,2.718,2.718,0,0,1,.893,1.294,3.006,3.006,0,0,1,.037,1.634,2.808,2.808,0,0,1-1.393,1.924,3.494,3.494,0,0,1-2.556.24Zm.457-1.386a2.618,2.618,0,0,0,1.617-.041,1.342,1.342,0,0,0,.815-.988,1.329,1.329,0,0,0-.294-1.247,2.879,2.879,0,0,0-1.542-.786,2.569,2.569,0,0,0-1.611.052,1.346,1.346,0,0,0-.822.982,1.332,1.332,0,0,0,.289,1.231A2.825,2.825,0,0,0-2770.986-522.943Z"/><path class="b" d="M-2772.554-530.656l.738.132a2.33,2.33,0,0,1-.41-2.034q.467-1.968,2.728-1.469l4.162.986-.335,1.415-4.081-.967a1.332,1.332,0,0,0-.949.049,1.12,1.12,0,0,0-.489.779,1.4,1.4,0,0,0,.472,1.458l4.483,1.062-.335,1.414-6.3-1.491Z"/><path class="b" d="M-2768.25-534.992a3.78,3.78,0,0,1-2.179-1.244,2.278,2.278,0,0,1-.443-2.039,2.132,2.132,0,0,1,1.152-1.516l-.619-.214.3-1.276,6.107,1.447a2.6,2.6,0,0,1,1.773,1.235,3.014,3.014,0,0,1,.224,2.25,3.451,3.451,0,0,1-.609,1.286,2.47,2.47,0,0,1-.992.825l-.691-.87a2.08,2.08,0,0,0,1.155-1.424,1.605,1.605,0,0,0-.118-1.2,1.5,1.5,0,0,0-1.025-.673l-.425-.1a2.14,2.14,0,0,1,.295,1.792,2.268,2.268,0,0,1-1.307,1.6A3.906,3.906,0,0,1-2768.25-534.992Zm.457-1.379a2.606,2.606,0,0,0,1.585-.034,1.277,1.277,0,0,0,.8-.945,1.4,1.4,0,0,0-.433-1.443l-2.771-.656a1.377,1.377,0,0,0-1.014,1.087,1.287,1.287,0,0,0,.3,1.217A2.919,2.919,0,0,0-2767.793-536.371Z"/><path class="b" d="M-2766.916-548.7a3.553,3.553,0,0,0-.183.566,1.332,1.332,0,0,0,.435,1.486l4.308,1.021-.335,1.414-6.3-1.491.32-1.351.713.132a1.641,1.641,0,0,1-.485-1.615,1.355,1.355,0,0,1,.2-.481Z"/><path class="b" d="M-2765.018-548.687a3.826,3.826,0,0,1-1.581-.762,2.759,2.759,0,0,1-.9-1.3,2.987,2.987,0,0,1-.038-1.62,2.828,2.828,0,0,1,1.311-1.875,3.317,3.317,0,0,1,2.381-.343l.333.072a3.877,3.877,0,0,1,1.581.753,2.729,2.729,0,0,1,.892,1.294,3,3,0,0,1,.037,1.635,2.81,2.81,0,0,1-1.393,1.923,3.488,3.488,0,0,1-2.556.24Zm.457-1.386a2.606,2.606,0,0,0,1.618-.041,1.342,1.342,0,0,0,.815-.988,1.329,1.329,0,0,0-.3-1.247,2.884,2.884,0,0,0-1.542-.786,2.573,2.573,0,0,0-1.61.051,1.346,1.346,0,0,0-.823.983,1.334,1.334,0,0,0,.289,1.231A2.831,2.831,0,0,0-2764.561-550.073Z"/><path class="b" d="M-2759.248-558.745a2.222,2.222,0,0,1-.627.024,2.264,2.264,0,0,1,.313,1.82,2.279,2.279,0,0,1-.908,1.42,1.78,1.78,0,0,1-1.482.283,1.838,1.838,0,0,1-1.368-1.114,3.73,3.73,0,0,1-.032-2.267l.206-.868-.413-.1a1.13,1.13,0,0,0-.848.088,1.114,1.114,0,0,0-.492.762,1.283,1.283,0,0,0,.054.849.765.765,0,0,0,.542.454l-.336,1.415a1.619,1.619,0,0,1-.888-.573,2.359,2.359,0,0,1-.486-1.1,3.393,3.393,0,0,1,.056-1.379,2.715,2.715,0,0,1,.974-1.632,2.04,2.04,0,0,1,1.724-.306l2.841.673a3.3,3.3,0,0,0,1.413.083l.1.023Zm-1.388,1.313a1.649,1.649,0,0,0-.016-.837,1.4,1.4,0,0,0-.416-.685l-1.187-.282-.181.763a2.155,2.155,0,0,0-.007,1.247.913.913,0,0,0,.681.579.851.851,0,0,0,.713-.117A1.073,1.073,0,0,0-2760.636-557.432Z"/><path class="b" d="M-2761.871-561.924a3.846,3.846,0,0,1-2.177-1.229,2.222,2.222,0,0,1-.454-2.019,2.112,2.112,0,0,1,1.082-1.453l-3.225-.764.335-1.414,8.942,2.117-.3,1.281-.669-.085a2.145,2.145,0,0,1,.368,1.876,2.213,2.213,0,0,1-1.315,1.58A3.991,3.991,0,0,1-2761.871-561.924Zm.457-1.385a2.7,2.7,0,0,0,1.587-.015,1.236,1.236,0,0,0,.788-.923,1.375,1.375,0,0,0-.474-1.453l-2.69-.637a1.352,1.352,0,0,0-1.055,1.078,1.245,1.245,0,0,0,.294,1.189A3,3,0,0,0-2761.414-563.309Z"/><path class="b" d="M-2712.518-757.569l-8.477-2.007.688-2.906a3.643,3.643,0,0,1,1.095-2.052,2.086,2.086,0,0,1,1.9-.344,1.877,1.877,0,0,1,.974.562,2.081,2.081,0,0,1,.5,1.091,1.923,1.923,0,0,1,.953-.9,2.1,2.1,0,0,1,1.326-.082,2.322,2.322,0,0,1,1.653,1.2,3.425,3.425,0,0,1,.121,2.344Zm-4.559-2.635.342-1.445a1.713,1.713,0,0,0-.058-1.147,1.1,1.1,0,0,0-.79-.6,1.108,1.108,0,0,0-.993.143,1.856,1.856,0,0,0-.543,1.049l-.34,1.432Zm1.083.256,2.649.628.387-1.636a1.634,1.634,0,0,0-.087-1.165,1.239,1.239,0,0,0-.862-.615,1.242,1.242,0,0,0-1.671,1.03Z"/><path class="b" d="M-2709.878-768.718a2.216,2.216,0,0,1-.626.024,2.262,2.262,0,0,1,.312,1.82,2.281,2.281,0,0,1-.908,1.42,1.777,1.777,0,0,1-1.481.283,1.841,1.841,0,0,1-1.369-1.114,3.731,3.731,0,0,1-.031-2.267l.205-.868-.413-.1a1.141,1.141,0,0,0-.848.088,1.117,1.117,0,0,0-.491.763,1.283,1.283,0,0,0,.054.85.771.771,0,0,0,.541.454l-.335,1.414a1.619,1.619,0,0,1-.888-.573,2.345,2.345,0,0,1-.486-1.1,3.363,3.363,0,0,1,.056-1.379,2.72,2.72,0,0,1,.974-1.633,2.042,2.042,0,0,1,1.723-.3l2.841.673a3.3,3.3,0,0,0,1.413.083l.1.023Zm-1.387,1.313a1.652,1.652,0,0,0-.017-.837,1.4,1.4,0,0,0-.415-.685l-1.188-.282-.18.763a2.135,2.135,0,0,0-.007,1.246.911.911,0,0,0,.681.58.852.852,0,0,0,.713-.117A1.078,1.078,0,0,0-2711.265-767.405Z"/><path class="b" d="M-2715.23-774.209l.738.131a2.327,2.327,0,0,1-.411-2.034q.467-1.968,2.728-1.469l4.163.986-.336,1.415-4.081-.967a1.333,1.333,0,0,0-.949.049,1.12,1.12,0,0,0-.489.779,1.4,1.4,0,0,0,.473,1.458l4.483,1.062-.335,1.414-6.3-1.491Z"/><path class="b" d="M-2715.082-781.663l1.531.362.264-1.111,1.048.248-.264,1.112,3.517.832a.8.8,0,0,0,.555-.019.676.676,0,0,0,.28-.471,2.192,2.192,0,0,0,.059-.509l1.095.259a3.566,3.566,0,0,1-.087.964q-.386,1.629-2.185,1.2l-3.569-.845-.245,1.037-1.048-.248.245-1.037-1.531-.363Z"/><path class="b" d="M-2712.014-784.724a2.279,2.279,0,0,1-.389-1.943q.477-2.015,2.784-1.5l4.116.974-.335,1.415-4.063-.962a1.273,1.273,0,0,0-.99.064,1.187,1.187,0,0,0-.468.765,1.4,1.4,0,0,0,.457,1.449l4.5,1.065-.335,1.415-8.942-2.118.334-1.414Z"/><path class="b" d="M-2704.273-792.384a2.223,2.223,0,0,1-.626.023,2.267,2.267,0,0,1,.312,1.821,2.286,2.286,0,0,1-.908,1.421,1.78,1.78,0,0,1-1.481.282,1.841,1.841,0,0,1-1.369-1.114,3.731,3.731,0,0,1-.031-2.267l.205-.867-.413-.1a1.13,1.13,0,0,0-.848.088,1.112,1.112,0,0,0-.491.763,1.27,1.27,0,0,0,.054.848.766.766,0,0,0,.541.454l-.335,1.415a1.614,1.614,0,0,1-.888-.573,2.34,2.34,0,0,1-.486-1.1,3.363,3.363,0,0,1,.056-1.379,2.72,2.72,0,0,1,.974-1.633,2.042,2.042,0,0,1,1.723-.3l2.841.673a3.3,3.3,0,0,0,1.413.083l.1.023Zm-1.387,1.314a1.656,1.656,0,0,0-.017-.838,1.4,1.4,0,0,0-.416-.686l-1.187-.28-.181.762a2.145,2.145,0,0,0-.006,1.247.911.911,0,0,0,.681.579.848.848,0,0,0,.713-.118A1.077,1.077,0,0,0-2705.66-791.07Z"/><path class="b" d="M-2711.047-798.7l1.531.363.263-1.112,1.048.248-.263,1.112,3.516.832a.8.8,0,0,0,.555-.018.683.683,0,0,0,.281-.472,2.246,2.246,0,0,0,.059-.509l1.094.26a3.612,3.612,0,0,1-.086.963q-.387,1.629-2.185,1.2l-3.569-.845-.245,1.036-1.049-.248.246-1.037-1.531-.362Z"/><path class="b" d="M-2709.405-805.632l1.531.363.263-1.112,1.048.248-.263,1.112,3.517.833a.8.8,0,0,0,.554-.019.68.68,0,0,0,.281-.472,2.172,2.172,0,0,0,.059-.509l1.095.26a3.561,3.561,0,0,1-.087.963q-.386,1.631-2.185,1.2l-3.569-.845-.245,1.036-1.049-.248.246-1.036-1.531-.363Z"/><path class="b" d="M-2706.337-808.693a2.273,2.273,0,0,1-.389-1.942q.477-2.015,2.784-1.5l4.116.975-.335,1.415-4.064-.963a1.28,1.28,0,0,0-.99.065,1.186,1.186,0,0,0-.467.765,1.4,1.4,0,0,0,.457,1.448l4.5,1.066-.335,1.415-8.943-2.118.335-1.415Z"/><path class="b" d="M-2702.758-813.084a3.825,3.825,0,0,1-1.581-.761,2.761,2.761,0,0,1-.9-1.3,3,3,0,0,1-.037-1.62,2.824,2.824,0,0,1,1.311-1.875,3.317,3.317,0,0,1,2.381-.343l.333.073a3.84,3.84,0,0,1,1.58.752,2.722,2.722,0,0,1,.893,1.293,3,3,0,0,1,.037,1.635,2.81,2.81,0,0,1-1.393,1.924,3.5,3.5,0,0,1-2.556.24Zm.457-1.385a2.621,2.621,0,0,0,1.618-.041,1.343,1.343,0,0,0,.814-.988,1.331,1.331,0,0,0-.294-1.248,2.883,2.883,0,0,0-1.542-.785,2.569,2.569,0,0,0-1.611.051,1.348,1.348,0,0,0-.823.983,1.332,1.332,0,0,0,.29,1.23A2.826,2.826,0,0,0-2702.3-814.469Z"/><path class="b" d="M-2703.868-822.182l.737.131a2.328,2.328,0,0,1-.41-2.033q.467-1.968,2.728-1.469l4.162.986-.335,1.414-4.081-.966a1.333,1.333,0,0,0-.949.048,1.125,1.125,0,0,0-.489.779,1.4,1.4,0,0,0,.472,1.459l4.483,1.061-.335,1.415-6.3-1.491Z"/><path class="b" d="M-2699.564-826.518a3.783,3.783,0,0,1-2.18-1.245,2.276,2.276,0,0,1-.443-2.038,2.129,2.129,0,0,1,1.152-1.516l-.619-.214.3-1.276,6.107,1.446a2.61,2.61,0,0,1,1.774,1.236,3.018,3.018,0,0,1,.223,2.25,3.473,3.473,0,0,1-.609,1.286,2.47,2.47,0,0,1-.992.825l-.691-.87a2.082,2.082,0,0,0,1.155-1.424,1.61,1.61,0,0,0-.118-1.2,1.5,1.5,0,0,0-1.025-.673l-.425-.1a2.14,2.14,0,0,1,.295,1.792,2.268,2.268,0,0,1-1.307,1.6A3.909,3.909,0,0,1-2699.564-826.518Zm.456-1.379a2.61,2.61,0,0,0,1.584-.034,1.276,1.276,0,0,0,.8-.945,1.4,1.4,0,0,0-.433-1.443l-2.771-.656a1.377,1.377,0,0,0-1.014,1.087,1.287,1.287,0,0,0,.3,1.217A2.928,2.928,0,0,0-2699.108-827.9Z"/><path class="b" d="M-2698.231-840.221a3.553,3.553,0,0,0-.183.566,1.331,1.331,0,0,0,.435,1.486l4.308,1.02-.335,1.415-6.3-1.492.32-1.35.713.132a1.638,1.638,0,0,1-.484-1.615,1.347,1.347,0,0,1,.2-.482Z"/><path class="b" d="M-2696.333-840.213a3.827,3.827,0,0,1-1.581-.763,2.754,2.754,0,0,1-.9-1.3,2.987,2.987,0,0,1-.038-1.62,2.829,2.829,0,0,1,1.311-1.875,3.318,3.318,0,0,1,2.381-.343l.333.072a3.864,3.864,0,0,1,1.581.753,2.716,2.716,0,0,1,.892,1.294,3,3,0,0,1,.037,1.635,2.812,2.812,0,0,1-1.393,1.923,3.493,3.493,0,0,1-2.556.24Zm.457-1.386a2.613,2.613,0,0,0,1.618-.041,1.345,1.345,0,0,0,.815-.988,1.326,1.326,0,0,0-.295-1.247,2.881,2.881,0,0,0-1.542-.787,2.584,2.584,0,0,0-1.611.052,1.347,1.347,0,0,0-.822.983,1.335,1.335,0,0,0,.289,1.231A2.836,2.836,0,0,0-2695.876-841.6Z"/><path class="b" d="M-2690.563-850.271a2.228,2.228,0,0,1-.627.023,2.267,2.267,0,0,1,.313,1.821,2.281,2.281,0,0,1-.908,1.42,1.78,1.78,0,0,1-1.482.283,1.84,1.84,0,0,1-1.368-1.114,3.73,3.73,0,0,1-.032-2.267l.206-.868-.413-.1a1.135,1.135,0,0,0-.848.089,1.113,1.113,0,0,0-.492.762,1.284,1.284,0,0,0,.054.849.767.767,0,0,0,.542.454l-.336,1.415a1.613,1.613,0,0,1-.887-.573,2.35,2.35,0,0,1-.487-1.1,3.376,3.376,0,0,1,.057-1.379,2.717,2.717,0,0,1,.973-1.633,2.044,2.044,0,0,1,1.724-.3l2.841.673a3.3,3.3,0,0,0,1.413.083l.1.023Zm-1.387,1.313a1.66,1.66,0,0,0-.017-.837,1.4,1.4,0,0,0-.416-.686l-1.187-.281-.181.763a2.145,2.145,0,0,0-.006,1.247.91.91,0,0,0,.68.579.847.847,0,0,0,.713-.118A1.072,1.072,0,0,0-2691.95-848.958Z"/><path class="b" d="M-2693.186-853.45a3.851,3.851,0,0,1-2.178-1.229,2.225,2.225,0,0,1-.453-2.02,2.112,2.112,0,0,1,1.082-1.452l-3.225-.764.335-1.415,8.942,2.118-.3,1.28-.669-.084a2.142,2.142,0,0,1,.368,1.876,2.212,2.212,0,0,1-1.315,1.58A3.991,3.991,0,0,1-2693.186-853.45Zm.458-1.386a2.694,2.694,0,0,0,1.586-.014,1.231,1.231,0,0,0,.787-.924,1.372,1.372,0,0,0-.473-1.452l-2.69-.637a1.352,1.352,0,0,0-1.055,1.078,1.245,1.245,0,0,0,.294,1.189A3,3,0,0,0-2692.728-854.836Z"/><path class="b" d="M-2534.4-871.674a1.053,1.053,0,0,0-.244-.942,4.856,4.856,0,0,0-1.326-.871,7.026,7.026,0,0,1-1.527-.986,2.233,2.233,0,0,1-.835-2.127,2.121,2.121,0,0,1,1.146-1.56,3.477,3.477,0,0,1,2.314-.286,3.762,3.762,0,0,1,1.538.612,2.664,2.664,0,0,1,.937,1.133,2.456,2.456,0,0,1,.162,1.423l-1.484-.261a1.367,1.367,0,0,0-.237-1.126,1.763,1.763,0,0,0-1.138-.592,1.842,1.842,0,0,0-1.189.112,1.056,1.056,0,0,0-.557.8.959.959,0,0,0,.3.864,5.117,5.117,0,0,0,1.33.866,6.738,6.738,0,0,1,1.49.96,2.6,2.6,0,0,1,.736,1.029,2.312,2.312,0,0,1,.08,1.2,2.074,2.074,0,0,1-1.122,1.561,3.622,3.622,0,0,1-2.342.241,4.267,4.267,0,0,1-1.652-.646,2.931,2.931,0,0,1-1.046-1.166,2.415,2.415,0,0,1-.184-1.49l1.491.262a1.412,1.412,0,0,0,.284,1.217,2.147,2.147,0,0,0,1.314.644,1.862,1.862,0,0,0,1.225-.109A1.031,1.031,0,0,0-2534.4-871.674Z"/><path class="b" d="M-2531.829-872.289a3.821,3.821,0,0,1,.668-1.623,2.745,2.745,0,0,1,1.247-.971,2.968,2.968,0,0,1,1.614-.132,2.826,2.826,0,0,1,1.949,1.2,3.316,3.316,0,0,1,.481,2.357l-.053.337a3.86,3.86,0,0,1-.659,1.621,2.72,2.72,0,0,1-1.239.967,3.014,3.014,0,0,1-1.631.132,2.807,2.807,0,0,1-2-1.279,3.5,3.5,0,0,1-.389-2.538Zm1.41.375a2.619,2.619,0,0,0,.135,1.613,1.344,1.344,0,0,0,1.033.756,1.329,1.329,0,0,0,1.228-.367,2.881,2.881,0,0,0,.7-1.585,2.576,2.576,0,0,0-.146-1.6,1.345,1.345,0,0,0-1.029-.764,1.332,1.332,0,0,0-1.211.36A2.823,2.823,0,0,0-2530.419-871.914Z"/><path class="b" d="M-2523.739-867.518l-1.432-.252,1.122-6.375,1.432.252Zm-.106-8.3a.772.772,0,0,1,.3-.511.805.805,0,0,1,.637-.113.816.816,0,0,1,.563.324.768.768,0,0,1,.115.585.743.743,0,0,1-.307.5.82.82,0,0,1-.639.11.81.81,0,0,1-.56-.321A.754.754,0,0,1-2523.845-875.817Z"/><path class="b" d="M-2512-868.33a3.147,3.147,0,0,1-1.39,1.963,3.511,3.511,0,0,1-2.487.355,3.4,3.4,0,0,1-1.72-.8,3.241,3.241,0,0,1-.962-1.594,5.06,5.06,0,0,1-.076-2.157l.141-.8a5.108,5.108,0,0,1,.807-2.063,3.29,3.29,0,0,1,1.486-1.209,3.49,3.49,0,0,1,1.947-.173,3.364,3.364,0,0,1,2.151,1.171,3.263,3.263,0,0,1,.624,2.355l-1.485-.262a2.148,2.148,0,0,0-.3-1.429,1.809,1.809,0,0,0-1.2-.633,1.766,1.766,0,0,0-1.619.447,3.607,3.607,0,0,0-.9,1.991l-.134.761a3.829,3.829,0,0,0,.124,2.211,1.679,1.679,0,0,0,1.33.988,1.959,1.959,0,0,0,1.389-.162,2.093,2.093,0,0,0,.791-1.216Z"/><path class="b" d="M-2508.886-870.759a2.275,2.275,0,0,1,1.917-.5q2.038.359,1.658,2.692l-.733,4.165-1.432-.252.724-4.112a1.28,1.28,0,0,0-.121-.985,1.189,1.189,0,0,0-.792-.421,1.4,1.4,0,0,0-1.419.539l-.8,4.555-1.432-.252,1.593-9.051,1.432.252Z"/><path class="b" d="M-2500.625-864.093a2.255,2.255,0,0,1-1.923.428,2.012,2.012,0,0,1-1.463-.884,2.623,2.623,0,0,1-.224-1.85l.727-4.13,1.432.252-.724,4.113q-.213,1.214.794,1.391a1.438,1.438,0,0,0,1.54-.5l.806-4.578,1.432.252-1.123,6.375-1.349-.237Z"/><path class="b" d="M-2496.369-862.7l-1.432-.252,1.593-9.051,1.432.252Z"/><path class="b" d="M-2491-861.754a2.2,2.2,0,0,1-.06-.624,2.265,2.265,0,0,1-1.8.418,2.281,2.281,0,0,1-1.471-.824,1.78,1.78,0,0,1-.369-1.462,1.837,1.837,0,0,1,1.033-1.431,3.731,3.731,0,0,1,2.261-.164l.878.155.074-.419a1.133,1.133,0,0,0-.137-.84,1.11,1.11,0,0,0-.791-.446,1.278,1.278,0,0,0-.844.1.767.767,0,0,0-.422.566l-1.432-.252a1.618,1.618,0,0,1,.521-.92,2.358,2.358,0,0,1,1.071-.549,3.361,3.361,0,0,1,1.381-.024,2.712,2.712,0,0,1,1.686.877,2.036,2.036,0,0,1,.4,1.7l-.506,2.876a3.32,3.32,0,0,0,0,1.415l-.017.1Zm-1.392-1.308a1.648,1.648,0,0,0,.835-.066,1.4,1.4,0,0,0,.66-.454l.211-1.2-.772-.136a2.131,2.131,0,0,0-1.244.066.91.91,0,0,0-.539.713.85.85,0,0,0,.158.705A1.084,1.084,0,0,0-2492.393-863.062Z"/><path class="b" d="M-2486.759-861.007l-1.432-.252,1.594-9.051,1.431.252Z"/><path class="b" d="M-2484.9-864.026a3.821,3.821,0,0,1,.668-1.623,2.75,2.75,0,0,1,1.247-.971,2.98,2.98,0,0,1,1.615-.132,2.825,2.825,0,0,1,1.948,1.2,3.318,3.318,0,0,1,.481,2.357l-.053.337a3.854,3.854,0,0,1-.659,1.621,2.723,2.723,0,0,1-1.239.967,3.005,3.005,0,0,1-1.631.132,2.812,2.812,0,0,1-2-1.279,3.491,3.491,0,0,1-.388-2.538Zm1.41.375a2.613,2.613,0,0,0,.136,1.613,1.341,1.341,0,0,0,1.033.756,1.327,1.327,0,0,0,1.228-.367,2.884,2.884,0,0,0,.7-1.585,2.574,2.574,0,0,0-.146-1.6,1.343,1.343,0,0,0-1.029-.764,1.331,1.331,0,0,0-1.211.361A2.828,2.828,0,0,0-2483.487-863.651Z"/><path class="b" d="M-2475.879-865.664l-.088.743a2.328,2.328,0,0,1,2.006-.527q1.992.351,1.626,2.637l-.742,4.213-1.432-.252.728-4.131a1.334,1.334,0,0,0-.1-.945,1.119,1.119,0,0,0-.8-.442,1.4,1.4,0,0,0-1.429.556l-.8,4.537-1.432-.251,1.123-6.376Z"/><path class="b" d="M-2471.3-861.621a3.8,3.8,0,0,1,1.116-2.248,2.277,2.277,0,0,1,2.01-.56,2.13,2.13,0,0,1,1.58,1.061l.178-.63,1.291.227-1.089,6.181a2.6,2.6,0,0,1-1.129,1.842,3.02,3.02,0,0,1-2.234.354,3.45,3.45,0,0,1-1.319-.533,2.482,2.482,0,0,1-.882-.942l.829-.741a2.078,2.078,0,0,0,1.489,1.07,1.607,1.607,0,0,0,1.193-.187,1.5,1.5,0,0,0,.612-1.062l.076-.43a2.14,2.14,0,0,1-1.771.4,2.272,2.272,0,0,1-1.673-1.212A3.915,3.915,0,0,1-2471.3-861.621Zm1.405.376a2.6,2.6,0,0,0,.126,1.58,1.279,1.279,0,0,0,.99.742,1.4,1.4,0,0,0,1.415-.516l.494-2.8a1.377,1.377,0,0,0-1.146-.948,1.283,1.283,0,0,0-1.2.365A2.923,2.923,0,0,0-2469.9-861.245Z"/><path class="b" d="M-2462.225-859.506l-.752.542-.366,2.08-1.432-.252,1.594-9.051,1.432.252-.92,5.221.547-.481,2.111-1.675,1.721.3-2.837,2.241,1.968,4.179-1.656-.291Z"/><path class="b" d="M-2458.175-859.322a3.825,3.825,0,0,1,.668-1.622,2.757,2.757,0,0,1,1.246-.972,2.991,2.991,0,0,1,1.615-.132,2.831,2.831,0,0,1,1.949,1.2,3.316,3.316,0,0,1,.481,2.357l-.054.336a3.841,3.841,0,0,1-.658,1.622,2.723,2.723,0,0,1-1.24.966,3.011,3.011,0,0,1-1.63.133,2.812,2.812,0,0,1-2-1.279,3.493,3.493,0,0,1-.389-2.538Zm1.41.376a2.6,2.6,0,0,0,.135,1.612,1.341,1.341,0,0,0,1.033.756,1.327,1.327,0,0,0,1.228-.366,2.882,2.882,0,0,0,.7-1.585,2.573,2.573,0,0,0-.146-1.6,1.349,1.349,0,0,0-1.029-.765,1.337,1.337,0,0,0-1.212.361A2.828,2.828,0,0,0-2456.765-858.946Z"/><path class="b" d="M-2447.378-859.3a3.539,3.539,0,0,0-.575-.15,1.334,1.334,0,0,0-1.459.521l-.767,4.36-1.432-.252,1.122-6.375,1.367.241-.09.719a1.638,1.638,0,0,1,1.584-.578,1.349,1.349,0,0,1,.492.172Z"/><path class="b" d="M-2444.915-860.213l-.088.744A2.332,2.332,0,0,1-2443-860q1.992.351,1.626,2.637l-.742,4.214-1.431-.252.727-4.131a1.339,1.339,0,0,0-.1-.945,1.121,1.121,0,0,0-.807-.442,1.4,1.4,0,0,0-1.428.556l-.8,4.537-1.431-.252,1.122-6.375Z"/><path class="b" d="M-2433.864-851.694l-1.425-.251,1.213-6.893-2.23.348.212-1.2,3.563-.642.183.032Z"/><path class="b" d="M-2425.113-850.153l-5.769-1.016.173-.984,3.407-2.614a7.277,7.277,0,0,0,1.084-1,1.9,1.9,0,0,0,.425-.882,1.433,1.433,0,0,0-.17-1.05,1.218,1.218,0,0,0-.862-.541,1.4,1.4,0,0,0-1.153.234,1.694,1.694,0,0,0-.587,1.094l-1.432-.252a2.845,2.845,0,0,1,.6-1.349,2.5,2.5,0,0,1,1.191-.8,3.3,3.3,0,0,1,1.59-.078,2.946,2.946,0,0,1,1.86.975,2.211,2.211,0,0,1,.417,1.862,2.982,2.982,0,0,1-.6,1.283,7.765,7.765,0,0,1-1.47,1.39L-2428.9-852l3.983.7Z"/><path class="b" d="M-2637.86-362.014l-1.555-.655-1.3,3.088-1.4-.588,3.382-8.028,2.823,1.19a3.56,3.56,0,0,1,1.882,1.526,2.4,2.4,0,0,1,0,2.123,2.461,2.461,0,0,1-.958,1.186,2.682,2.682,0,0,1-1.435.379l.4,4.1-.03.072-1.494-.63Zm-1.081-1.78,1.433.605a1.73,1.73,0,0,0,1.253.108,1.35,1.35,0,0,0,.807-.806,1.43,1.43,0,0,0,.053-1.152,1.691,1.691,0,0,0-.941-.825l-1.472-.62Z"/><path class="b" d="M-2631.629-355.754a2.254,2.254,0,0,1,.08-.622,2.26,2.26,0,0,1-1.847.008,2.279,2.279,0,0,1-1.25-1.13,1.78,1.78,0,0,1-.034-1.508,1.838,1.838,0,0,1,1.325-1.165,3.724,3.724,0,0,1,2.241.343l.822.346.165-.392a1.135,1.135,0,0,0,.053-.85,1.118,1.118,0,0,0-.671-.611,1.288,1.288,0,0,0-.847-.087.77.77,0,0,0-.537.459l-1.34-.564a1.612,1.612,0,0,1,.712-.781,2.352,2.352,0,0,1,1.167-.3,3.4,3.4,0,0,1,1.352.284,2.712,2.712,0,0,1,1.448,1.23,2.039,2.039,0,0,1,.017,1.75l-1.134,2.691a3.3,3.3,0,0,0-.315,1.38l-.039.093Zm-1.066-1.584a1.654,1.654,0,0,0,.829.121,1.394,1.394,0,0,0,.745-.3l.473-1.124-.722-.3a2.145,2.145,0,0,0-1.228-.212.911.911,0,0,0-.684.576.846.846,0,0,0,0,.723A1.078,1.078,0,0,0-2632.7-357.338Z"/><path class="b" d="M-2625.311-360.117l-.224.639a2.332,2.332,0,0,1,2.029-.009,1.789,1.789,0,0,1,1.252,1.606,2.3,2.3,0,0,1,2.216-.145,2.021,2.021,0,0,1,1.24,1.165,2.606,2.606,0,0,1-.185,1.818l-1.651,3.92-1.34-.564,1.635-3.882a1.283,1.283,0,0,0,.1-.937,1.176,1.176,0,0,0-.709-.611,1.216,1.216,0,0,0-.851-.069,1.411,1.411,0,0,0-.676.472l-1.718,4.093-1.339-.564,1.653-3.926a1.037,1.037,0,0,0-.631-1.506,1.278,1.278,0,0,0-1.418.176l-1.821,4.322-1.34-.564,2.513-5.966Z"/><path class="b" d="M-2615.694-349.042a2.248,2.248,0,0,1,.08-.622,2.262,2.262,0,0,1-1.846.008,2.283,2.283,0,0,1-1.251-1.131,1.778,1.778,0,0,1-.034-1.507,1.84,1.84,0,0,1,1.325-1.166,3.73,3.73,0,0,1,2.242.344l.821.346.165-.392a1.136,1.136,0,0,0,.053-.85,1.115,1.115,0,0,0-.671-.611,1.275,1.275,0,0,0-.847-.087.768.768,0,0,0-.537.459l-1.34-.565a1.614,1.614,0,0,1,.713-.781,2.355,2.355,0,0,1,1.166-.3,3.371,3.371,0,0,1,1.351.284,2.712,2.712,0,0,1,1.449,1.23,2.035,2.035,0,0,1,.016,1.75l-1.133,2.69a3.313,3.313,0,0,0-.315,1.38l-.039.094Zm-1.066-1.585a1.665,1.665,0,0,0,.829.122,1.407,1.407,0,0,0,.745-.3l.473-1.125-.722-.3a2.136,2.136,0,0,0-1.228-.212.909.909,0,0,0-.684.575.854.854,0,0,0,0,.723A1.081,1.081,0,0,0-2616.76-350.627Z"/><path class="b" d="M-2608.735-346.111l-1.39-.586,3.381-8.028,1.39.586Z"/><path class="b" d="M-2603.456-345.946l4.685-5.42,1.533.645-6.27,6.811-1.351-.569.5-9.24,1.527.643Z"/><path class="b" d="M-2592.652-342.973l-1.555-.655-1.3,3.088-1.4-.588,3.382-8.028,2.823,1.189a3.567,3.567,0,0,1,1.882,1.528,2.393,2.393,0,0,1,0,2.122,2.455,2.455,0,0,1-.958,1.185,2.667,2.667,0,0,1-1.435.38l.395,4.1-.03.071-1.5-.629Zm-1.081-1.78,1.433.6a1.73,1.73,0,0,0,1.253.109,1.347,1.347,0,0,0,.807-.806,1.43,1.43,0,0,0,.053-1.152,1.687,1.687,0,0,0-.941-.825l-1.472-.62Z"/><path class="b" d="M-2588.957-341.358a3.83,3.83,0,0,1,1.013-1.434,2.759,2.759,0,0,1,1.431-.669,2.989,2.989,0,0,1,1.6.231,2.829,2.829,0,0,1,1.633,1.6,3.318,3.318,0,0,1-.056,2.405l-.127.316a3.839,3.839,0,0,1-1,1.434,2.719,2.719,0,0,1-1.423.667,3.012,3.012,0,0,1-1.619-.234,2.81,2.81,0,0,1-1.667-1.692,3.5,3.5,0,0,1,.186-2.561Zm1.291.68a2.615,2.615,0,0,0-.227,1.6,1.341,1.341,0,0,0,.84.967,1.329,1.329,0,0,0,1.279-.084,2.893,2.893,0,0,0,1.03-1.39,2.58,2.58,0,0,0,.215-1.6,1.346,1.346,0,0,0-.833-.974,1.336,1.336,0,0,0-1.262.082A2.835,2.835,0,0,0-2587.666-340.678Z"/><path class="b" d="M-2579.992-334.005a2.211,2.211,0,0,1,.081-.622,2.263,2.263,0,0,1-1.848.008,2.281,2.281,0,0,1-1.25-1.13,1.782,1.782,0,0,1-.034-1.508,1.84,1.84,0,0,1,1.325-1.166,3.726,3.726,0,0,1,2.241.344l.822.346.164-.392a1.127,1.127,0,0,0,.054-.85,1.115,1.115,0,0,0-.671-.611,1.287,1.287,0,0,0-.846-.087.767.767,0,0,0-.538.459l-1.34-.564a1.608,1.608,0,0,1,.712-.781,2.353,2.353,0,0,1,1.167-.3,3.379,3.379,0,0,1,1.352.284,2.712,2.712,0,0,1,1.448,1.23,2.038,2.038,0,0,1,.017,1.75l-1.134,2.69a3.309,3.309,0,0,0-.315,1.38l-.039.094Zm-1.065-1.585a1.648,1.648,0,0,0,.828.122,1.411,1.411,0,0,0,.745-.3l.474-1.124-.722-.3a2.149,2.149,0,0,0-1.229-.212.911.911,0,0,0-.684.576.852.852,0,0,0,0,.722A1.078,1.078,0,0,0-2581.057-335.59Z"/><path class="b" d="M-2576.423-336.066a3.852,3.852,0,0,1,1.572-1.944,2.222,2.222,0,0,1,2.067-.113,2.113,2.113,0,0,1,1.254,1.307l1.287-3.055,1.339.565-3.567,8.469-1.213-.511.194-.645a2.147,2.147,0,0,1-1.911.052,2.21,2.21,0,0,1-1.34-1.558A3.992,3.992,0,0,1-2576.423-336.066Zm1.291.681a2.7,2.7,0,0,0-.248,1.566,1.232,1.232,0,0,0,.781.93,1.375,1.375,0,0,0,1.511-.227l1.073-2.548a1.355,1.355,0,0,0-.89-1.218,1.239,1.239,0,0,0-1.22.093A3,3,0,0,0-2575.132-335.385Z"/><path class="b" d="M-2380.682-341.188l3.169.633-.3,1.485-8.542-1.708.653-3.267a3.37,3.37,0,0,1,1.2-2.125,2.555,2.555,0,0,1,2.141-.447,2.47,2.47,0,0,1,1.791,1.215,3.526,3.526,0,0,1,.238,2.448Zm-1.2-.239.356-1.784a1.8,1.8,0,0,0-.131-1.283,1.4,1.4,0,0,0-.994-.631,1.505,1.505,0,0,0-1.19.2,1.667,1.667,0,0,0-.658,1.077l-.364,1.824Z"/><path class="b" d="M-2381.678-349.148a2.271,2.271,0,0,1-.456-1.927q.405-2.031,2.728-1.6l4.148.829-.285,1.426-4.095-.819a1.28,1.28,0,0,0-.986.1,1.19,1.19,0,0,0-.441.782,1.4,1.4,0,0,0,.507,1.431l4.535.907-.284,1.425-9.012-1.8.285-1.426Z"/><path class="b" d="M-2374.212-357.076a2.291,2.291,0,0,1-.626.046,2.264,2.264,0,0,1,.378,1.808,2.29,2.29,0,0,1-.858,1.452,1.781,1.781,0,0,1-1.47.334,1.836,1.836,0,0,1-1.407-1.065,3.721,3.721,0,0,1-.112-2.265l.174-.874-.416-.083a1.128,1.128,0,0,0-.844.118,1.114,1.114,0,0,0-.464.78,1.283,1.283,0,0,0,.084.846.769.769,0,0,0,.557.435l-.285,1.426a1.613,1.613,0,0,1-.908-.542,2.363,2.363,0,0,1-.525-1.084,3.4,3.4,0,0,1,.008-1.38,2.723,2.723,0,0,1,.915-1.666,2.039,2.039,0,0,1,1.712-.365l2.863.571a3.281,3.281,0,0,0,1.414.033l.1.02Zm-1.34,1.361a1.651,1.651,0,0,0-.046-.836,1.4,1.4,0,0,0-.44-.67l-1.2-.24-.154.769a2.144,2.144,0,0,0,.039,1.246.909.909,0,0,0,.7.555.851.851,0,0,0,.709-.142A1.082,1.082,0,0,0-2375.552-355.715Z"/><path class="b" d="M-2375.287-362.324l-4.047-2.151.3-1.52,6.806,3.984a2.091,2.091,0,0,1,1.208,2.291,2.605,2.605,0,0,1-.244.665l-1.108-.222.071-.266a1.422,1.422,0,0,0-.033-.852,1.337,1.337,0,0,0-.574-.562l-.5-.315-6.759.968.307-1.537Z"/><path class="b" d="M-2371.779-369.25a2.255,2.255,0,0,1-.626.046,2.258,2.258,0,0,1,.377,1.808,2.284,2.284,0,0,1-.857,1.452,1.781,1.781,0,0,1-1.47.334,1.836,1.836,0,0,1-1.407-1.065,3.721,3.721,0,0,1-.112-2.265l.174-.874-.416-.083a1.133,1.133,0,0,0-.844.118,1.114,1.114,0,0,0-.464.78,1.285,1.285,0,0,0,.083.846.772.772,0,0,0,.557.435l-.284,1.426a1.615,1.615,0,0,1-.908-.542,2.351,2.351,0,0,1-.525-1.084,3.393,3.393,0,0,1,.008-1.38,2.721,2.721,0,0,1,.915-1.666,2.042,2.042,0,0,1,1.712-.366l2.863.572a3.3,3.3,0,0,0,1.415.033l.1.02Zm-1.34,1.361a1.649,1.649,0,0,0-.047-.836,1.389,1.389,0,0,0-.439-.67l-1.2-.239-.154.768a2.142,2.142,0,0,0,.039,1.246.908.908,0,0,0,.7.555.845.845,0,0,0,.708-.142A1.072,1.072,0,0,0-2373.119-367.889Z"/><path class="b" d="M-2376.795-382.376l-.532,2.664,7.346,1.468-.295,1.473-7.346-1.468-.527,2.64-1.2-.239,1.354-6.777Z"/><path class="b" d="M-2374.628-384.425a2.275,2.275,0,0,1-.456-1.929q.405-2.029,2.728-1.6l4.148.829-.285,1.426-4.095-.818a1.271,1.271,0,0,0-.986.1,1.181,1.181,0,0,0-.441.781,1.4,1.4,0,0,0,.507,1.431l4.535.907-.284,1.425-9.012-1.8.285-1.425Z"/><path class="b" d="M-2367.162-392.354a2.248,2.248,0,0,1-.626.046,2.263,2.263,0,0,1,.378,1.808,2.288,2.288,0,0,1-.858,1.451,1.778,1.778,0,0,1-1.47.335,1.839,1.839,0,0,1-1.408-1.065,3.729,3.729,0,0,1-.111-2.265l.174-.874-.416-.083a1.133,1.133,0,0,0-.844.118,1.116,1.116,0,0,0-.464.78,1.282,1.282,0,0,0,.084.846.769.769,0,0,0,.557.435l-.285,1.426a1.614,1.614,0,0,1-.908-.542,2.349,2.349,0,0,1-.525-1.084,3.4,3.4,0,0,1,.008-1.38,2.721,2.721,0,0,1,.915-1.666,2.043,2.043,0,0,1,1.712-.366l2.863.572a3.312,3.312,0,0,0,1.414.033l.1.02Zm-1.34,1.361a1.649,1.649,0,0,0-.046-.836,1.4,1.4,0,0,0-.44-.67l-1.2-.239-.154.768a2.144,2.144,0,0,0,.039,1.246.909.909,0,0,0,.7.555.847.847,0,0,0,.709-.142A1.08,1.08,0,0,0-2368.5-390.993Z"/><path class="b" d="M-2374.617-396.663a.768.768,0,0,1-.5-.317.805.805,0,0,1-.1-.639.808.808,0,0,1,.337-.555.763.763,0,0,1,.587-.1.748.748,0,0,1,.495.319.818.818,0,0,1,.095.641.806.806,0,0,1-.334.552A.749.749,0,0,1-2374.617-396.663Zm8.3.085-.285,1.426-6.348-1.269.285-1.426Z"/><path class="b" d="M-2368.04-405.055l-.331,1.654,3.285.657-.3,1.484-8.542-1.707.6-3a3.558,3.558,0,0,1,1.12-2.149,2.392,2.392,0,0,1,2.08-.421,2.45,2.45,0,0,1,1.353.7,2.677,2.677,0,0,1,.659,1.331l3.941-1.208.076.015-.317,1.59Zm-1.528,1.415.305-1.525a1.733,1.733,0,0,0-.144-1.25,1.344,1.344,0,0,0-.951-.629,1.435,1.435,0,0,0-1.14.178,1.692,1.692,0,0,0-.62,1.087l-.313,1.567Z"/><path class="b" d="M-2367.2-409a3.811,3.811,0,0,1-1.607-.706,2.748,2.748,0,0,1-.943-1.268,3,3,0,0,1-.095-1.618,2.834,2.834,0,0,1,1.245-1.92,3.316,3.316,0,0,1,2.367-.427l.335.061a3.845,3.845,0,0,1,1.606.7,2.725,2.725,0,0,1,.938,1.261,3.01,3.01,0,0,1,.094,1.633,2.808,2.808,0,0,1-1.324,1.972,3.489,3.489,0,0,1-2.546.33Zm.408-1.4a2.6,2.6,0,0,0,1.615-.1,1.341,1.341,0,0,0,.779-1.015,1.328,1.328,0,0,0-.339-1.236,2.874,2.874,0,0,0-1.568-.731,2.574,2.574,0,0,0-1.608.108,1.348,1.348,0,0,0-.788,1.011,1.338,1.338,0,0,0,.333,1.22A2.832,2.832,0,0,0-2366.789-410.4Z"/><path class="b" d="M-2361.786-419.254a2.291,2.291,0,0,1-.626.046,2.263,2.263,0,0,1,.377,1.808,2.285,2.285,0,0,1-.857,1.452,1.781,1.781,0,0,1-1.47.334,1.836,1.836,0,0,1-1.407-1.065,3.721,3.721,0,0,1-.112-2.265l.174-.874-.416-.083a1.137,1.137,0,0,0-.845.118,1.113,1.113,0,0,0-.463.78,1.279,1.279,0,0,0,.084.847.766.766,0,0,0,.557.434l-.286,1.426a1.611,1.611,0,0,1-.907-.542,2.338,2.338,0,0,1-.524-1.084,3.363,3.363,0,0,1,.007-1.38,2.714,2.714,0,0,1,.916-1.666,2.034,2.034,0,0,1,1.71-.365l2.863.571a3.29,3.29,0,0,0,1.416.033l.1.02Zm-1.34,1.361a1.659,1.659,0,0,0-.046-.836,1.4,1.4,0,0,0-.44-.67l-1.2-.24-.153.769a2.145,2.145,0,0,0,.037,1.246.91.91,0,0,0,.7.555.852.852,0,0,0,.709-.142A1.082,1.082,0,0,0-2363.126-417.893Z"/><path class="b" d="M-2364.52-422.339a3.839,3.839,0,0,1-2.219-1.151,2.221,2.221,0,0,1-.524-2,2.109,2.109,0,0,1,1.03-1.49l-3.251-.65.285-1.426,9.012,1.8-.258,1.291-.671-.061a2.144,2.144,0,0,1,.433,1.862,2.213,2.213,0,0,1-1.258,1.625A3.989,3.989,0,0,1-2364.52-422.339Zm.409-1.4a2.69,2.69,0,0,0,1.584-.071,1.232,1.232,0,0,0,.755-.95,1.373,1.373,0,0,0-.525-1.436l-2.71-.541a1.351,1.351,0,0,0-1.016,1.114,1.24,1.24,0,0,0,.335,1.178A3,3,0,0,0-2364.111-423.739Z"/><path class="b" d="M-2296.806-702.635l3.169.633-.3,1.484-8.542-1.707.653-3.268a3.37,3.37,0,0,1,1.2-2.124,2.559,2.559,0,0,1,2.141-.448,2.476,2.476,0,0,1,1.791,1.215,3.536,3.536,0,0,1,.238,2.449Zm-1.2-.239.355-1.784a1.793,1.793,0,0,0-.13-1.283,1.4,1.4,0,0,0-.994-.632,1.5,1.5,0,0,0-1.19.2,1.661,1.661,0,0,0-.658,1.076l-.364,1.825Z"/><path class="b" d="M-2297.8-710.595a2.274,2.274,0,0,1-.456-1.928q.405-2.029,2.728-1.6l4.148.829-.285,1.426-4.095-.819a1.275,1.275,0,0,0-.986.1,1.188,1.188,0,0,0-.441.781,1.4,1.4,0,0,0,.507,1.432l4.535.906-.284,1.426-9.012-1.8.285-1.426Z"/><path class="b" d="M-2290.336-718.523a2.256,2.256,0,0,1-.626.045,2.263,2.263,0,0,1,.378,1.808,2.287,2.287,0,0,1-.858,1.452,1.783,1.783,0,0,1-1.47.335,1.837,1.837,0,0,1-1.407-1.066,3.718,3.718,0,0,1-.112-2.264l.174-.875-.416-.083a1.133,1.133,0,0,0-.844.119,1.114,1.114,0,0,0-.464.779,1.28,1.28,0,0,0,.084.847.768.768,0,0,0,.556.434l-.284,1.426a1.613,1.613,0,0,1-.908-.541,2.368,2.368,0,0,1-.525-1.084,3.407,3.407,0,0,1,.008-1.381,2.721,2.721,0,0,1,.915-1.665,2.035,2.035,0,0,1,1.712-.366l2.863.572a3.294,3.294,0,0,0,1.414.032l.1.021Zm-1.34,1.361a1.65,1.65,0,0,0-.047-.836,1.4,1.4,0,0,0-.439-.671l-1.2-.239-.154.769a2.145,2.145,0,0,0,.039,1.246.91.91,0,0,0,.7.554.851.851,0,0,0,.709-.141A1.082,1.082,0,0,0-2291.676-717.162Z"/><path class="b" d="M-2291.411-723.772l-4.048-2.151.3-1.52,6.806,3.984a2.091,2.091,0,0,1,1.208,2.291,2.611,2.611,0,0,1-.244.666l-1.108-.222.071-.266a1.421,1.421,0,0,0-.033-.852,1.334,1.334,0,0,0-.574-.563l-.5-.314-6.759.967.307-1.537Z"/><path class="b" d="M-2287.9-730.7a2.216,2.216,0,0,1-.626.046,2.259,2.259,0,0,1,.377,1.809,2.281,2.281,0,0,1-.857,1.451,1.781,1.781,0,0,1-1.47.335,1.839,1.839,0,0,1-1.407-1.066,3.723,3.723,0,0,1-.113-2.264l.175-.874-.416-.083a1.128,1.128,0,0,0-.844.118,1.114,1.114,0,0,0-.464.779,1.288,1.288,0,0,0,.083.847.772.772,0,0,0,.557.435l-.284,1.425a1.619,1.619,0,0,1-.908-.541,2.361,2.361,0,0,1-.525-1.084,3.4,3.4,0,0,1,.008-1.381,2.724,2.724,0,0,1,.915-1.666,2.038,2.038,0,0,1,1.712-.365l2.863.572a3.3,3.3,0,0,0,1.415.032l.1.021Zm-1.34,1.362a1.648,1.648,0,0,0-.047-.836,1.392,1.392,0,0,0-.439-.671l-1.2-.239-.154.769a2.152,2.152,0,0,0,.038,1.246.912.912,0,0,0,.7.555.844.844,0,0,0,.708-.143A1.07,1.07,0,0,0-2289.243-729.336Z"/><path class="b" d="M-2292.919-743.823l-.532,2.664,7.345,1.468-.294,1.472-7.346-1.468-.528,2.64-1.2-.239,1.354-6.776Z"/><path class="b" d="M-2290.752-745.873a2.273,2.273,0,0,1-.456-1.928q.405-2.029,2.728-1.6l4.148.829-.285,1.426-4.095-.819a1.276,1.276,0,0,0-.986.1,1.184,1.184,0,0,0-.441.781,1.4,1.4,0,0,0,.507,1.432l4.535.906-.284,1.426-9.012-1.8.285-1.426Z"/><path class="b" d="M-2283.286-753.8a2.259,2.259,0,0,1-.626.045,2.264,2.264,0,0,1,.378,1.808,2.288,2.288,0,0,1-.858,1.452,1.782,1.782,0,0,1-1.47.335,1.84,1.84,0,0,1-1.408-1.066,3.726,3.726,0,0,1-.111-2.264l.174-.874-.416-.084a1.133,1.133,0,0,0-.844.119,1.114,1.114,0,0,0-.464.779,1.279,1.279,0,0,0,.084.847.768.768,0,0,0,.556.434l-.284,1.426a1.612,1.612,0,0,1-.908-.541,2.359,2.359,0,0,1-.525-1.084,3.4,3.4,0,0,1,.008-1.381,2.72,2.72,0,0,1,.915-1.665,2.035,2.035,0,0,1,1.712-.366l2.863.572a3.3,3.3,0,0,0,1.414.032l.1.02Zm-1.34,1.361a1.648,1.648,0,0,0-.047-.836,1.4,1.4,0,0,0-.439-.671l-1.2-.239-.154.769a2.142,2.142,0,0,0,.039,1.246.913.913,0,0,0,.7.555.848.848,0,0,0,.709-.143A1.077,1.077,0,0,0-2284.626-752.44Z"/><path class="b" d="M-2290.741-758.11a.773.773,0,0,1-.5-.318.8.8,0,0,1-.1-.638.805.805,0,0,1,.337-.555.767.767,0,0,1,.587-.1.752.752,0,0,1,.495.319.819.819,0,0,1,.095.641.809.809,0,0,1-.334.553A.753.753,0,0,1-2290.741-758.11Zm8.3.084-.285,1.426-6.348-1.269.285-1.425Z"/><path class="b" d="M-2284.165-766.5l-.33,1.655,3.285.656-.3,1.484-8.542-1.707.6-3a3.559,3.559,0,0,1,1.12-2.149,2.391,2.391,0,0,1,2.08-.42,2.449,2.449,0,0,1,1.353.7,2.681,2.681,0,0,1,.659,1.331l3.941-1.208.076.016-.317,1.589Zm-1.527,1.415.3-1.525a1.731,1.731,0,0,0-.144-1.249,1.344,1.344,0,0,0-.951-.629,1.427,1.427,0,0,0-1.14.178,1.687,1.687,0,0,0-.62,1.087l-.313,1.566Z"/><path class="b" d="M-2283.321-770.446a3.824,3.824,0,0,1-1.607-.706,2.752,2.752,0,0,1-.943-1.269,3,3,0,0,1-.095-1.617,2.83,2.83,0,0,1,1.245-1.92,3.311,3.311,0,0,1,2.367-.427l.335.061a3.845,3.845,0,0,1,1.606.7,2.725,2.725,0,0,1,.938,1.261,3.006,3.006,0,0,1,.094,1.632,2.806,2.806,0,0,1-1.324,1.972,3.5,3.5,0,0,1-2.546.331Zm.408-1.4a2.605,2.605,0,0,0,1.615-.1,1.343,1.343,0,0,0,.779-1.016,1.328,1.328,0,0,0-.339-1.236,2.874,2.874,0,0,0-1.568-.731,2.574,2.574,0,0,0-1.608.109,1.348,1.348,0,0,0-.788,1.011,1.336,1.336,0,0,0,.333,1.219A2.825,2.825,0,0,0-2282.913-771.848Z"/><path class="b" d="M-2277.911-780.7a2.249,2.249,0,0,1-.625.045,2.265,2.265,0,0,1,.377,1.809,2.282,2.282,0,0,1-.857,1.451,1.781,1.781,0,0,1-1.47.335,1.841,1.841,0,0,1-1.408-1.066,3.726,3.726,0,0,1-.111-2.264l.174-.875-.416-.083a1.136,1.136,0,0,0-.845.119,1.113,1.113,0,0,0-.463.779,1.279,1.279,0,0,0,.084.847.766.766,0,0,0,.557.434l-.286,1.426a1.609,1.609,0,0,1-.907-.541,2.348,2.348,0,0,1-.524-1.084,3.367,3.367,0,0,1,.007-1.381,2.707,2.707,0,0,1,.916-1.665,2.031,2.031,0,0,1,1.71-.366l2.863.572a3.3,3.3,0,0,0,1.415.032l.1.021Zm-1.339,1.361a1.661,1.661,0,0,0-.046-.836,1.4,1.4,0,0,0-.44-.671l-1.2-.239-.154.769a2.154,2.154,0,0,0,.038,1.246.911.911,0,0,0,.7.554.851.851,0,0,0,.709-.141A1.082,1.082,0,0,0-2279.25-779.34Z"/><path class="b" d="M-2280.644-783.786a3.85,3.85,0,0,1-2.219-1.151,2.223,2.223,0,0,1-.524-2,2.111,2.111,0,0,1,1.03-1.49l-3.251-.649.285-1.426,9.012,1.8-.258,1.291-.671-.061a2.144,2.144,0,0,1,.433,1.862,2.216,2.216,0,0,1-1.258,1.625A4,4,0,0,1-2280.644-783.786Zm.409-1.4a2.683,2.683,0,0,0,1.584-.071,1.232,1.232,0,0,0,.755-.95,1.371,1.371,0,0,0-.525-1.435l-2.71-.542a1.352,1.352,0,0,0-1.016,1.115,1.24,1.24,0,0,0,.335,1.178A3,3,0,0,0-2280.235-785.187Z"/><path class="b" d="M-2551.133-566.495a.876.876,0,0,0-.795.163,4.046,4.046,0,0,0-.781,1.066,5.815,5.815,0,0,1-.886,1.23,1.861,1.861,0,0,1-1.8.6,1.767,1.767,0,0,1-1.25-1.02,2.9,2.9,0,0,1-.139-1.937,3.151,3.151,0,0,1,.574-1.255,2.223,2.223,0,0,1,.984-.731,2.048,2.048,0,0,1,1.191-.075l-.281,1.225a1.136,1.136,0,0,0-.947.149,1.467,1.467,0,0,0-.541.922,1.537,1.537,0,0,0,.043.994.881.881,0,0,0,.643.5.8.8,0,0,0,.731-.211,4.267,4.267,0,0,0,.777-1.07,5.629,5.629,0,0,1,.863-1.2,2.174,2.174,0,0,1,.888-.569,1.926,1.926,0,0,1,1-.015,1.73,1.73,0,0,1,1.252,1,3.028,3.028,0,0,1,.1,1.96,3.53,3.53,0,0,1-.609,1.346,2.425,2.425,0,0,1-1.014.822,2.008,2.008,0,0,1-1.248.089l.282-1.229a1.174,1.174,0,0,0,1.024-.185,1.781,1.781,0,0,0,.592-1.066,1.55,1.55,0,0,0-.038-1.024A.861.861,0,0,0-2551.133-566.495Z"/><path class="b" d="M-2551.536-568.664a3.176,3.176,0,0,1-1.322-.626,2.286,2.286,0,0,1-.755-1.078,2.492,2.492,0,0,1-.041-1.35,2.354,2.354,0,0,1,1.081-1.57,2.765,2.765,0,0,1,1.982-.3l.278.059a3.212,3.212,0,0,1,1.322.618,2.263,2.263,0,0,1,.751,1.073,2.508,2.508,0,0,1,.041,1.361,2.335,2.335,0,0,1-1.15,1.611,2.907,2.907,0,0,1-2.129.216Zm.373-1.158a2.167,2.167,0,0,0,1.347-.044,1.118,1.118,0,0,0,.674-.827,1.108,1.108,0,0,0-.253-1.038,2.4,2.4,0,0,0-1.29-.646,2.153,2.153,0,0,0-1.342.052,1.124,1.124,0,0,0-.679.825,1.11,1.11,0,0,0,.248,1.023A2.357,2.357,0,0,0-2551.163-569.822Z"/><path class="b" d="M-2554.132-575.459a.644.644,0,0,1-.412-.276.673.673,0,0,1-.067-.535.676.676,0,0,1,.294-.454.636.636,0,0,1,.492-.071.624.624,0,0,1,.405.276.688.688,0,0,1,.063.537.674.674,0,0,1-.29.452A.625.625,0,0,1-2554.132-575.459Zm6.912.265-.271,1.181-5.258-1.206.27-1.181Z"/><path class="b" d="M-2547.4-585a2.614,2.614,0,0,1,1.575,1.241,2.918,2.918,0,0,1,.19,2.084,2.819,2.819,0,0,1-.743,1.4,2.686,2.686,0,0,1-1.367.733,4.218,4.218,0,0,1-1.8-.029l-.661-.151a4.253,4.253,0,0,1-1.683-.76,2.742,2.742,0,0,1-.942-1.287,2.9,2.9,0,0,1-.062-1.628,2.8,2.8,0,0,1,1.067-1.74,2.715,2.715,0,0,1,1.986-.42l-.281,1.225a1.794,1.794,0,0,0-1.2.192,1.512,1.512,0,0,0-.578.97,1.474,1.474,0,0,0,.3,1.366,3,3,0,0,0,1.619.834l.627.144a3.183,3.183,0,0,0,1.846-.009,1.4,1.4,0,0,0,.879-1.064,1.633,1.633,0,0,0-.077-1.164,1.746,1.746,0,0,0-.977-.71Z"/><path class="b" d="M-2549.285-587.693a1.9,1.9,0,0,1-.336-1.617q.386-1.682,2.311-1.265l3.436.787-.271,1.181-3.392-.777a1.064,1.064,0,0,0-.824.058.994.994,0,0,0-.385.641,1.167,1.167,0,0,0,.389,1.205l3.757.861-.271,1.181-7.465-1.712.271-1.181Z"/><path class="b" d="M-2543.385-594.285a1.88,1.88,0,0,1,.273,1.618,1.677,1.677,0,0,1-.8,1.181,2.188,2.188,0,0,1-1.549.107l-3.407-.781.271-1.181,3.392.778q1,.23,1.191-.6a1.2,1.2,0,0,0-.351-1.3l-3.775-.866.27-1.181,5.259,1.206-.256,1.112Z"/><path class="b" d="M-2542.045-597.768l-.27,1.182-7.465-1.712.271-1.181Z"/><path class="b" d="M-2541.029-602.2a1.867,1.867,0,0,1-.522.024,1.889,1.889,0,0,1,.271,1.515,1.9,1.9,0,0,1-.748,1.189,1.486,1.486,0,0,1-1.233.245,1.536,1.536,0,0,1-1.147-.921,3.11,3.11,0,0,1-.04-1.889l.166-.724-.345-.079a.951.951,0,0,0-.706.078.93.93,0,0,0-.4.639,1.059,1.059,0,0,0,.05.707.636.636,0,0,0,.453.375l-.271,1.181a1.347,1.347,0,0,1-.743-.472,1.961,1.961,0,0,1-.412-.916,2.805,2.805,0,0,1,.039-1.149,2.263,2.263,0,0,1,.8-1.366,1.7,1.7,0,0,1,1.435-.265l2.371.544a2.767,2.767,0,0,0,1.178.06l.083.019Zm-1.148,1.1a1.386,1.386,0,0,0-.02-.7,1.161,1.161,0,0,0-.35-.569l-.992-.228-.145.637a1.779,1.779,0,0,0,0,1.039.757.757,0,0,0,.57.478.708.708,0,0,0,.594-.1A.9.9,0,0,0-2542.177-601.092Z"/><path class="b" d="M-2540.227-605.694l-.271,1.181-7.465-1.711.271-1.181Z"/><path class="b" d="M-2542.661-607.372a3.174,3.174,0,0,1-1.322-.625,2.289,2.289,0,0,1-.755-1.079,2.488,2.488,0,0,1-.041-1.349A2.355,2.355,0,0,1-2543.7-612a2.77,2.77,0,0,1,1.982-.3l.278.059a3.182,3.182,0,0,1,1.321.618,2.262,2.262,0,0,1,.752,1.072,2.512,2.512,0,0,1,.041,1.362,2.343,2.343,0,0,1-1.15,1.611,2.907,2.907,0,0,1-2.129.215Zm.373-1.157a2.175,2.175,0,0,0,1.347-.044,1.12,1.12,0,0,0,.674-.828,1.111,1.111,0,0,0-.253-1.038,2.41,2.41,0,0,0-1.29-.646,2.152,2.152,0,0,0-1.342.053,1.126,1.126,0,0,0-.68.824,1.114,1.114,0,0,0,.249,1.024A2.358,2.358,0,0,0-2542.288-608.529Z"/><path class="b" d="M-2543.64-614.947l.615.106a1.939,1.939,0,0,1-.354-1.693q.376-1.643,2.264-1.241l3.475.8-.271,1.181-3.407-.781a1.114,1.114,0,0,0-.79.046.933.933,0,0,0-.4.652,1.169,1.169,0,0,0,.4,1.213l3.743.858-.271,1.181-5.259-1.206Z"/><path class="b" d="M-2540.08-618.586a3.15,3.15,0,0,1-1.823-1.024,1.9,1.9,0,0,1-.382-1.7,1.778,1.778,0,0,1,.951-1.27l-.517-.175.244-1.065,5.1,1.169a2.173,2.173,0,0,1,1.485,1.019,2.512,2.512,0,0,1,.2,1.874,2.885,2.885,0,0,1-.5,1.075,2.06,2.06,0,0,1-.822.694l-.581-.722a1.733,1.733,0,0,0,.954-1.193,1.344,1.344,0,0,0-.1-1,1.254,1.254,0,0,0-.858-.555l-.355-.081a1.784,1.784,0,0,1,.257,1.491,1.891,1.891,0,0,1-1.08,1.34A3.249,3.249,0,0,1-2540.08-618.586Zm.372-1.153a2.16,2.16,0,0,0,1.321-.037,1.062,1.062,0,0,0,.659-.792,1.164,1.164,0,0,0-.369-1.2l-2.313-.53a1.147,1.147,0,0,0-.838.912,1.068,1.068,0,0,0,.253,1.012A2.423,2.423,0,0,0-2539.708-619.739Z"/><path class="b" d="M-2537.934-626.048l.419.649,1.716.393-.271,1.181-7.465-1.711.271-1.181,4.306.987-.377-.475-1.3-1.829.325-1.419,1.744,2.456,3.563-1.46-.313,1.366Z"/><path class="b" d="M-2537.608-629.41a3.188,3.188,0,0,1-1.322-.626,2.284,2.284,0,0,1-.755-1.079,2.5,2.5,0,0,1-.042-1.349,2.359,2.359,0,0,1,1.082-1.571,2.77,2.77,0,0,1,1.982-.3l.278.059a3.208,3.208,0,0,1,1.321.618,2.262,2.262,0,0,1,.752,1.072,2.512,2.512,0,0,1,.041,1.362,2.342,2.342,0,0,1-1.15,1.612,2.913,2.913,0,0,1-2.129.215Zm.373-1.158a2.175,2.175,0,0,0,1.347-.044,1.118,1.118,0,0,0,.674-.828,1.109,1.109,0,0,0-.253-1.038,2.409,2.409,0,0,0-1.29-.645,2.153,2.153,0,0,0-1.342.052,1.128,1.128,0,0,0-.68.824,1.114,1.114,0,0,0,.249,1.024A2.359,2.359,0,0,0-2537.235-630.568Z"/><path class="b" d="M-2537.129-638.4a3.064,3.064,0,0,0-.149.472,1.111,1.111,0,0,0,.372,1.236l3.6.824-.271,1.181-5.258-1.205.258-1.128.595.106a1.364,1.364,0,0,1-.413-1.343,1.113,1.113,0,0,1,.164-.4Z"/><path class="b" d="M-2537.785-640.484l.615.1a1.945,1.945,0,0,1-.354-1.693q.376-1.641,2.264-1.24l3.475.8-.27,1.181-3.407-.781a1.117,1.117,0,0,0-.791.046.933.933,0,0,0-.4.653,1.166,1.166,0,0,0,.4,1.212l3.742.858-.271,1.181-5.258-1.206Z"/><path class="b" d="M-2533.15-650.148a1.9,1.9,0,0,1,.309,1.529,1.893,1.893,0,0,1-.995,1.337,2.631,2.631,0,0,1-1.844.16,2.892,2.892,0,0,1-1.2-.573,2.149,2.149,0,0,1-.7-1,2.324,2.324,0,0,1-.04-1.278,2.1,2.1,0,0,1,1.186-1.513,3.433,3.433,0,0,1,2.277-.138l.331.076a4.474,4.474,0,0,1,2.722,1.534,3.346,3.346,0,0,1,.429,2.815l-.033.141-.977-.224.04-.17a2.476,2.476,0,0,0-.136-1.719A2.15,2.15,0,0,0-2533.15-650.148Zm-.557,1.069a1.23,1.23,0,0,0-.051-.713,1.382,1.382,0,0,0-.454-.61l-.462-.106a2.271,2.271,0,0,0-1.332.032.993.993,0,0,0-.667.722.981.981,0,0,0,.234.911,1.812,1.812,0,0,0,.992.547,1.789,1.789,0,0,0,1.145-.06A1,1,0,0,0-2533.707-649.079Z"/></g></svg>