<svg xmlns="http://www.w3.org/2000/svg" xmlns:xlink="http://www.w3.org/1999/xlink" width="44.353" height="55.104" viewBox="0 0 44.353 55.104"><defs><style>.a{fill:#030124;opacity:0.2;}.b{fill:#e347f0;stroke:#fff;}.c{filter:url(#a);}</style><filter id="a" x="0" y="0" width="44.353" height="55.104" filterUnits="userSpaceOnUse"><feOffset input="SourceAlpha"/><feGaussianBlur stdDeviation="2" result="b"/><feFlood flood-opacity="0.161"/><feComposite operator="in" in2="b"/><feComposite in="SourceGraphic"/></filter></defs><g transform="translate(-545.49 -423.396)"><ellipse class="a" cx="9" cy="3" rx="9" ry="3" transform="translate(559 469)"/><g class="c" transform="matrix(1, 0, 0, 1, 545.49, 423.4)"><path class="b" d="M2407.777,720.9a16.534,16.534,0,0,1-4.145,11.2c-1.6,1.908-3.288,3.738-4.925,5.613a30.821,30.821,0,0,0-5.5,8.613,1.106,1.106,0,0,1-1.072.785,1.091,1.091,0,0,1-1.062-.742,34.742,34.742,0,0,0-6.743-10.06c-1.609-1.788-3.238-3.577-4.661-5.51a15.527,15.527,0,0,1-2.739-13.387c1.359-5.556,4.685-9.557,10.142-11.453a14.95,14.95,0,0,1,14.649,2.42,15.214,15.214,0,0,1,6.038,10.943c.008.081.016.161.018.243Q2407.778,720.226,2407.777,720.9Zm-7.365-.144a8.282,8.282,0,1,0-8.153,8.247A8.286,8.286,0,0,0,2400.413,720.753Z" transform="translate(-2369.93 -698.5)"/></g></g></svg>