<svg xmlns="http://www.w3.org/2000/svg" width="21.318" height="30.264" viewBox="0 0 21.318 30.264"><defs><style>.a{fill:#030124;opacity:0.2;isolation:isolate;}.b{fill:#e17cff;stroke:#fff;}</style></defs><g transform="translate(2571.23 668.494)"><ellipse class="a" cx="6.016" cy="2.005" rx="6.016" ry="2.005" transform="translate(-2566.344 -642.24)"/><path class="b" d="M-2550.413-657.636a10.693,10.693,0,0,1-2.682,7.245c-1.035,1.235-2.127,2.418-3.186,3.631a19.96,19.96,0,0,0-3.558,5.572.715.715,0,0,1-.694.508.705.705,0,0,1-.687-.48,22.455,22.455,0,0,0-4.362-6.508c-1.041-1.157-2.095-2.314-3.015-3.564a10.046,10.046,0,0,1-1.772-8.661,9.851,9.851,0,0,1,6.561-7.409,9.672,9.672,0,0,1,9.477,1.565,9.843,9.843,0,0,1,3.906,7.08c.005.052.011.1.012.157Z"/></g></svg>