<svg xmlns="http://www.w3.org/2000/svg" xmlns:xlink="http://www.w3.org/1999/xlink" width="447.945" height="512" viewBox="0 0 447.945 512"><defs><style>.a{fill:none;}.b{opacity:0.78;}.c,.g{fill:#fff;}.d{fill:#c99eb6;}.e{fill:#ffc9e2;}.f{fill:#55ad72;}.g,.j,.k{font-size:8px;font-family:Roboto-Medium, Roboto;font-weight:500;}.h{letter-spacing:-0.029em;}.i{clip-path:url(#a);}.k{fill:#040f02;}.l{letter-spacing:-0.018em;}.m{letter-spacing:-0.017em;}</style><clipPath id="a"><rect class="a" width="447.945" height="512"/></clipPath></defs><g class="b"><rect class="c" width="46.522" height="29.933" transform="translate(67.016 58.48) rotate(-80.043)"/><rect class="c" width="55.538" height="29.933" transform="matrix(0.173, -0.985, 0.985, 0.173, 56.602, 117.799)"/><path class="c" d="M131.719,23.231l-18.458,105.14,49.018,8.605,15.464-88.09-18.826-3.3,2.993-17.05Z" transform="translate(-21.139 -4.336)"/><path class="c" d="M178.83,30.82l-1.559,8.88,20.6,3.617-13.033,74.237,51.5,9.041,14.592-83.118Z" transform="translate(-33.085 -5.752)"/><rect class="c" width="106.748" height="29.933" transform="matrix(0.173, -0.985, 0.985, 0.173, 205.077, 143.865)"/><rect class="c" width="106.748" height="24.523" transform="translate(239.887 149.976) rotate(-80.043)"/><rect class="c" width="17.31" height="53.013" transform="translate(147.179 133.701) rotate(-80.043)"/><rect class="d" width="53.374" height="145.336" transform="translate(284.878 104.827) rotate(-80.043)"/><rect class="c" width="42.194" height="75.012" transform="translate(276.522 152.423) rotate(-80.043)"/><rect class="c" width="42.194" height="62.029" transform="translate(357.153 166.578) rotate(-80.043)"/><rect class="c" width="73.93" height="143.894" transform="translate(262.866 230.213) rotate(-80.043)"/><rect class="c" width="14.786" height="143.894" transform="translate(259.311 250.46) rotate(-80.043)"/><path class="c" d="M315.551,314.045l-9.54,54.346,80.63,14.156L400,366.949l6.485-36.941Z" transform="translate(-57.113 -58.612)"/><path class="c" d="M432.409,334.975l-6.423,36.586-13.419,15.952,34.455,6.049,9.541-54.346Z" transform="translate(-77 -62.519)"/><rect class="c" width="55.178" height="15.147" transform="translate(375.706 332.041) rotate(-80.043)"/><rect class="c" width="36.785" height="75.012" transform="translate(241.415 352.403) rotate(-80.043)"/><rect class="c" width="36.785" height="62.029" transform="translate(322.046 366.558) rotate(-80.043)"/><rect class="c" width="39.309" height="44.718" transform="translate(233.558 397.159) rotate(-80.044)"/><rect class="c" width="39.309" height="28.351" transform="matrix(0.173, -0.985, 0.985, 0.173, 283.211, 405.876)"/><rect class="c" width="39.31" height="59.365" transform="translate(316.813 411.775) rotate(-80.043)"/><rect class="c" width="36.785" height="62.029" transform="translate(226.199 439.073) rotate(-80.043)"/><path class="c" d="M367,509.769,360.642,546l26.285,4.615-6.3,35.876,46.624,18.07,14.342-81.7Z" transform="translate(-67.309 -95.142)"/><path class="c" d="M276.329,547.248l-2.058,11.722,84.972,33.224,5.176-29.482Z" transform="translate(-51.189 -102.136)"/><path class="e" d="M233.616,485.006l-7.794,44.4,28.047,13.346,9.229-52.571Z" transform="translate(-42.147 -90.52)"/><path class="e" d="M178.046,475.193l-6.361,36.23,38.056,14.736,7.733-44.045Z" transform="translate(-32.043 -88.688)"/><path class="e" d="M126.915,466.146,122.3,492.431l36.99,14.549,5.986-34.1Z" transform="translate(-22.826 -87)"/><path class="d" d="M72.633,400.594l-10.788,61.45,43.134,17.092,12.409-70.685Z" transform="translate(-11.543 -74.766)"/><path class="d" d="M24.122,392.008l35.52,6.236L49.353,456.852,15.08,443.512Z" transform="translate(-2.814 -73.163)"/><rect class="d" width="36.785" height="36.064" transform="translate(22.367 312.806) rotate(-80.043)"/><rect class="d" width="36.785" height="45.44" transform="translate(62.15 319.79) rotate(-80.043)"/><rect class="f" width="48.325" height="87.274" transform="translate(29.231 270.073) rotate(-80.043)"/><rect class="d" width="46.522" height="13.612" transform="matrix(0.173, -0.985, 0.985, 0.173, 38.335, 218.213)"/><rect class="d" width="46.522" height="13.612" transform="matrix(0.173, -0.985, 0.985, 0.173, 56.715, 221.44)"/><rect class="d" width="46.522" height="13.612" transform="matrix(0.173, -0.985, 0.985, 0.173, 74.611, 224.581)"/><rect class="d" width="46.522" height="32.503" transform="translate(92.28 227.683) rotate(-80.042)"/><rect class="d" width="46.522" height="13.612" transform="matrix(0.173, -0.985, 0.985, 0.173, 47.158, 167.952)"/><rect class="d" width="46.522" height="13.612" transform="matrix(0.173, -0.985, 0.985, 0.173, 65.538, 171.178)"/><rect class="d" width="46.522" height="13.612" transform="matrix(0.173, -0.985, 0.985, 0.173, 83.434, 174.32)"/><rect class="d" width="46.522" height="32.503" transform="translate(101.104 177.422) rotate(-80.042)"/><rect class="c" width="112.699" height="53.013" transform="translate(126.913 249.142) rotate(-80.043)"/><rect class="c" width="91.782" height="59.866" transform="translate(188.427 238.704) rotate(-80.043)"/><rect class="c" width="52.652" height="59.865" transform="matrix(0.173, -0.985, 0.985, 0.173, 178.325, 296.247)"/><rect class="c" width="36.785" height="73.57" transform="translate(157.345 336.502) rotate(-80.043)"/><rect class="c" width="31.376" height="51.57" transform="matrix(0.173, -0.985, 0.985, 0.173, 120.428, 286.083)"/><rect class="c" width="82.225" height="40.391" transform="matrix(0.173, -0.985, 0.985, 0.173, 105.087, 373.463)"/><rect class="c" width="41.113" height="73.57" transform="translate(149.488 381.258) rotate(-80.043)"/><text class="g" transform="translate(252.78 270.116) rotate(-80.043)"><tspan x="0" y="0">Phaya</tspan><tspan class="h" y="0"> </tspan><tspan y="0">Thai Road</tspan></text><text class="g" transform="translate(276.15 133.798) rotate(-80.043)"><tspan x="0" y="0">Phaya</tspan><tspan class="h" y="0"> </tspan><tspan y="0">Thai Road</tspan></text><text class="g" transform="translate(223.662 434.335) rotate(-80.043)"><tspan x="0" y="0">Phaya</tspan><tspan class="h" y="0"> </tspan><tspan y="0">Thai Road</tspan></text><g class="i"><text class="g" transform="matrix(0.931, 0.365, -0.365, 0.931, 269.51, 491.105)"><tspan x="0" y="0">Rama IV Road</tspan></text></g><text class="g" transform="matrix(0.931, 0.365, -0.365, 0.931, 132.783, 431.06)"><tspan x="0" y="0">Rama IV Road</tspan></text><text class="g" transform="matrix(0.931, 0.365, -0.365, 0.931, 25.239, 388.028)"><tspan x="0" y="0">Rama IV Road</tspan></text><text class="j" transform="translate(274.11 285.03)"><tspan x="0" y="0">Chulalongkorn</tspan></text><text class="j" transform="translate(282.528 294.79)"><tspan x="0" y="0">University</tspan></text><text class="k" transform="translate(49.687 246.2)"><tspan x="0" y="0">Chulalongkorn</tspan></text><text class="k" transform="translate(58.105 255.96)"><tspan x="0" y="0">University</tspan></text><text class="k" transform="translate(52.973 265.721)"><tspan x="0" y="0">Century park</tspan></text><g class="i"><text class="g" transform="translate(433.826 176.514) rotate(-80.043)"><tspan x="0" y="0">Henri Dunant Road</tspan></text></g><text class="g" transform="translate(407.14 318.781) rotate(-80.043)"><tspan x="0" y="0">Henri Dunant Road</tspan></text><text class="g" transform="translate(377.207 480.346) rotate(-80.043)"><tspan x="0" y="0">Henri Dunant Road</tspan></text><text class="g" transform="translate(50.081 102.052) rotate(-80.043)"><tspan x="0" y="0">Banthat thong </tspan><tspan class="l" y="0">r</tspan><tspan y="0">oad</tspan></text><text class="g" transform="translate(27.359 240.423) rotate(-80.043)"><tspan x="0" y="0">Banthat thong </tspan><tspan class="l" y="0">r</tspan><tspan y="0">oad</tspan></text><g class="i"><text class="g" transform="translate(6.721 363.034) rotate(-80.043)"><tspan x="0" y="0">Banthat thong </tspan><tspan class="l" y="0">r</tspan><tspan y="0">oad</tspan></text><text class="g" transform="translate(81.954 6.722) rotate(9.957)"><tspan x="0" y="0">Rama I </tspan><tspan class="m" y="0">r</tspan><tspan y="0">oad</tspan></text></g><text class="g" transform="translate(239.741 35.933) rotate(9.957)"><tspan x="0" y="0">Rama I </tspan><tspan class="m" y="0">r</tspan><tspan y="0">oad</tspan></text><text class="g" transform="translate(394.728 65.148) rotate(9.957)"><tspan x="0" y="0">Rama I </tspan><tspan class="m" y="0">r</tspan><tspan y="0">oad</tspan></text></g></svg>